<?xml version="1.0" encoding="UTF-8" standalone="no"?>
<!-- Created with Inkscape (http://www.inkscape.org/) -->

<svg
   xmlns:dc="http://purl.org/dc/elements/1.1/"
   xmlns:cc="http://creativecommons.org/ns#"
   xmlns:rdf="http://www.w3.org/1999/02/22-rdf-syntax-ns#"
   xmlns:svg="http://www.w3.org/2000/svg"
   xmlns="http://www.w3.org/2000/svg"
   xmlns:sodipodi="http://sodipodi.sourceforge.net/DTD/sodipodi-0.dtd"
   xmlns:inkscape="http://www.inkscape.org/namespaces/inkscape"
   version="1.1"
   id="svg3713"
   width="933.12"
   height="1148.8"
   viewBox="0 0 933.12 1148.8"
   sodipodi:docname="1.svg"
   inkscape:version="0.92.3 (2405546, 2018-03-11)">
  <metadata
     id="metadata3719">
    <rdf:RDF>
      <cc:Work
         rdf:about="">
        <dc:format>image/svg+xml</dc:format>
        <dc:type
           rdf:resource="http://purl.org/dc/dcmitype/StillImage" />
        <dc:title></dc:title>
      </cc:Work>
    </rdf:RDF>
  </metadata>
  <defs
     id="defs3717" />
  <sodipodi:namedview
     pagecolor="#ffffff"
     bordercolor="#666666"
     borderopacity="1"
     objecttolerance="10"
     gridtolerance="10"
     guidetolerance="10"
     inkscape:pageopacity="0"
     inkscape:pageshadow="2"
     inkscape:window-width="1280"
     inkscape:window-height="706"
     id="namedview3715"
     showgrid="false"
     inkscape:zoom="0.35355339"
     inkscape:cx="385.57887"
     inkscape:cy="509.94256"
     inkscape:window-x="-8"
     inkscape:window-y="-8"
     inkscape:window-maximized="1"
     inkscape:current-layer="svg3713" />
  <path
     style="fill:#000000;stroke-width:0.63999999"
     d="m 596.09521,1149.4472 c -0.176,-0.1732 -4.5566,-0.4784 -9.7347,-0.6783 -5.3413,-0.206 -10.0487,-0.6951 -10.88,-1.1303 -4.3252,-2.2643 -14.4792,-9.5436 -18.4817,-13.2493 -6.6787,-6.1834 -10.3257,-11.3868 -15.7949,-22.5357 -4.155,-8.4697 -4.9811,-10.7154 -5.6506,-15.36 -0.4313,-2.992 -1.5618,-8.752 -2.5122,-12.8 -1.4504,-6.1776 -1.6675,-8.2432 -1.3512,-12.8573 0.5867,-8.5609 2.2074,-7.9427 -20.8243,-7.9427 -19.1048,0 -19.4709,-0.024 -23.2504,-1.5625 -3.6141,-1.4705 -4.5084,-1.5567 -15.1982,-1.4635 -6.247,0.054 -11.8998,0.3888 -12.5617,0.7431 -0.6619,0.3542 -2.5805,2.8848 -4.2636,5.6235 -6.8462,11.1397 -12.3222,17.9605 -23.9059,29.7762 -12.8525,13.1101 -15.7697,15.341 -28.2306,21.5891 -15.0624,7.5526 -13.1056,7.1659 -38.08,7.5266 l -21.76,0.3143 -7.68,-4.0254 c -10.3286,-5.4137 -12.9335,-7.5531 -17.0959,-14.0414 -3.9951,-6.2277 -5.505,-9.7412 -6.3098,-14.683 -0.312,-1.9156 -1.584,-5.9942 -2.8266,-9.0634 -2.9001,-7.1631 -3.4245,-10.0964 -3.4555,-19.3297 -0.043,-12.7889 1.6823,-17.9636 8.3744,-25.1174 3.4251,-3.6615 4.1902,-5.4065 2.3705,-5.4065 -1.7061,0 -17.2944,-6.3208 -25.2171,-10.2251 -19.4509,-9.5854 -35.5426,-22.0799 -48.5236,-37.67649 -2.5353,-3.04614 -4.8947,-5.59008 -5.243,-5.65318 -0.3484,-0.0634 -1.6414,0.81421 -2.8734,1.94957 -4.1649,3.8384 -9.8606,8.26054 -14.3253,11.12236 -4.7618,3.05229 -17.3356,9.43414 -22.3921,11.36524 l -3.0827,1.1773 0.5401,3.5701 c 0.297,1.9636 0.5326,5.7302 0.5235,8.3702 -0.014,4.2258 -0.2777,5.2855 -2.2008,8.8594 -2.2904,4.2565 -12.2125,14.3075 -15.3827,15.5827 -1.5655,0.6296 -8.91,1.0926 -18.6205,1.1737 -7.1164,0.059 -11.3572,-1.6933 -16.3309,-6.7496 -4.2768,-4.3478 -6.6217,-8.5381 -8.5486,-15.276 -1.7723,-6.1975 -2.5635,-7.1865 -6.1844,-7.7294 -1.6705,-0.2505 -4.9268,-1.1181 -7.2364,-1.928 -2.3096,-0.8098 -5.7444,-1.6384 -7.6329,-1.8413 -1.8885,-0.2028 -4.6245,-0.9522 -6.08,-1.6653 -3.4079,-1.6698 -18.1565,-12.75582 -22.0741,-16.59236 -4.2411,-4.15341 -10.5668,-12.65581 -13.4985,-18.14368 -4.6495,-8.70317 -5.2257,-11.67546 -5.6167,-28.97018 -0.2314,-10.23616 -0.092,-17.27174 0.4191,-21.09094 1.2828,-9.59296 6.8281,-22.20967 15.1662,-34.50637 2.5947,-3.82656 4.7177,-7.21056 4.7177,-7.52 0,-0.30951 -2.0995,-0.56269 -4.6656,-0.56269 -2.566,0 -6.382,-0.4343 -8.48,-0.96512 -4.919,-1.24467 -19.9715,-8.58234 -24.9302,-12.15283 -5.3638,-3.86227 -25.4873,-24.47923 -27.24808,-27.91629 -2.5452,-4.96826 -5.73663,-13.56589 -6.69927,-18.04762 -0.65763,-3.06169 -0.93451,-8.403 -0.92893,-17.92 0.007,-12.48742 0.13435,-14.01305 1.60856,-19.31814 0.93755,-3.37389 1.44396,-6.48672 1.22245,-7.5143 -0.208,-0.96493 -2.24614,-3.98893 -4.52921,-6.72 -8.8613405,-10.60039 -10.2843505,-14.52474 -15.0605305,-41.53389 -1.51212,-8.55098 1.17343,-15.44288 7.20953,-18.50157 3.79017,-1.92064 8.9498305,-2.05786 21.3554305,-0.56787 10.83086,1.3008 15.23245,2.43347 19.54585,5.02957 5.8229,3.50476 6.2753,3.6798 7.6331,2.95315 0.6783,-0.36301 3.2756,-3.37741 5.772,-6.69863 5.6019,-7.45318 9.3331,-10.80672 13.3084,-11.9614 1.9761,-0.57396 6.3071,-0.88282 12.3265,-0.87911 12.689,0.008 13.7966,0.46138 20.0054,8.19194 5.7021,7.09958 7.8177,10.63014 8.8502,14.76896 0.8693,3.48448 0.2113,3.07731 16.1926,10.02054 3.4806,1.51219 8.8086,4.5264 11.84,6.69837 7.5452,5.40582 12.0831,10.98144 16.7839,20.62208 2.2827,4.68154 4.204,7.85216 4.7583,7.85216 0.5112,0 0.9296,-0.1367 0.9296,-0.30374 0,-0.16711 -1.4052,-5.71111 -3.1227,-12.32 -10.3915,-39.98708 -14.3134,-53.989 -15.6615,-55.91373 -0.4506,-0.64327 -4.1125,-3.67271 -8.1376,-6.73203 -13.6437,-10.37031 -26.5993,-22.06708 -30.3842,-27.432 -1.3937,-1.97549 -4.6777,-6.53184 -7.2978,-10.12519 -12.452,-17.07727 -19.469,-31.76233 -24.9875,-52.29331 -1.0881,-4.048 -2.9674,-10.528 -4.1762,-14.4 -1.2089,-3.872 -2.4767,-9.488 -2.8173,-12.48 -0.8459,-7.42887 -0.422,-56.66744 0.5372,-62.4 1.5706,-9.38637 3.9936,-17.0303 8.0136,-25.28 1.458,-2.992 3.334,-7.168 4.169,-9.28 3.7601,-9.51108 13.4941,-24.59277 22.5647,-34.96133 3.1942,-3.65127 7.3176,-8.52726 9.163,-10.83555 4.1242,-5.15859 8.7977,-9.41508 14.7578,-13.44092 2.4973,-1.68684 5.7561,-4.51878 7.2417,-6.29319 1.8059,-2.15695 5.4461,-4.97115 10.9834,-8.49105 6.1102,-3.88411 8.1969,-5.53375 7.9568,-6.29026 -0.179,-0.56398 -1.3358,-5.60365 -2.5706,-11.19926 -3.8058,-17.24588 -4.5094,-33.05782 -1.752,-39.36998 0.9611,-2.20005 1.3333,-4.84888 1.5736,-11.2 0.2811,-7.43041 0.5677,-9.07002 2.6839,-15.35846 4.3934,-13.0548 14.0106,-29.89183 24.31,-42.56 6.5042,-8.00008 25.3064,-26.74845 31.4327,-31.34264 5.5674,-4.17516 23.5292,-16.13806 30.08,-20.0339 1.76,-1.0467 8.3092,-4.47293 14.5538,-7.61385 6.9955,-3.51859 11.6363,-6.23851 12.0896,-7.08556 0.4047,-0.75615 0.8569,-3.83839 1.005,-6.84943 0.3195,-6.49947 2.085,-14.16913 4.4089,-19.1532 0.9236,-1.98078 3.5183,-8.03391 5.7662,-13.4514 6.7109,-16.17394 10.3572,-21.7517 21.9393,-33.56007 12.6486,-12.89584 21.3782,-19.37365 35.991,-26.70722 7.5697,-3.79895 16.2997,-7.29074 20.685,-8.27351 3.8077,-0.85332 18.9621,-2.55497 22.8258,-2.56306 1.9332,-0.004 4.0205,-0.57815 6.0765,-1.671342 l 3.1318,-1.665174 14.7235,0.269011 c 13.2521,0.242133 15.0754,0.408523 18.2436,1.664853 3.9595,1.570152 6.9641,1.783262 8.41,0.59649 0.5361,-0.44 2.3093,-2.709778 3.9404,-5.043954 1.6312,-2.334176 4.6316,-5.876 6.6676,-7.870733 5.3993,-5.289645 18.2384,-13.613549 29.8006,-19.320397 7.9496,-3.923752 10.0043,-5.195207 9.6552,-5.974699 -0.244,-0.544619 -1.1287,-2.950219 -1.966,-5.345777 -1.3771,-3.939923 -1.5216,-5.405682 -1.5137,-15.36 0,-6.052442 0.3071,-12.566671 0.6719,-14.476065 1.2057,-6.311594 5.4,-11.696707 13.7524,-17.6568557 8.2382,-5.878642 14.1738,-7.388038 30.7416,-7.81742597 14.881,-0.385671 20.3927,0.43622197 31.36,4.67633497 4.224,1.633057 11.2458,4.260069 15.6041,5.8378037 8.8107,3.189513 12.409,5.228006 25.0246,14.176678 8.8587,6.283767 16.9626,13.262226 27.2585,23.472909 10.4464,10.359914 30.4347,38.625452 33.2969,47.085106 0.8447,2.496825 1.5359,4.933297 1.5359,5.414377 0,0.48108 0.5798,2.42438 1.2885,4.31846 3.8306,10.23851 20.852,18.36424 38.4683,18.36424 3.4055,0 6.5585,0.354 7.7837,0.87391 4.0716,1.72775 21.8721,21.53349 25.0771,27.90203 2.5539,5.0746 8.5212,19.50012 9.5587,23.10736 0.5501,1.91219 1.2685,5.91632 1.5967,8.89809 0.4691,4.26342 0.8809,5.65164 1.9278,6.49938 0.7322,0.59289 4.717,2.13904 8.8552,3.43588 9.0193,2.82651 16.3615,6.21071 21.7058,10.00488 2.168,1.53916 9.9675,8.70247 17.3321,15.91847 14.4094,14.11855 18.5647,19.45039 24.6891,31.68 6.3657,12.71145 8.834,19.93686 12.2068,35.73298 1.2528,5.86741 2.7335,11.54915 3.2904,12.62609 1.4838,2.86942 3.0535,16.57219 2.6048,22.73867 -0.6897,9.47784 1.4473,13.23768 10.175,17.90205 20.3596,10.88087 33.2559,22.91907 53.0596,49.5293 10.7651,14.46502 14.1482,20.6699 21.8263,40.03091 7.3118,18.43751 9.9754,28.87121 13.2341,51.84 1.126,7.93637 1.1335,47.24115 0.01,55.04 -1.8242,12.66892 -7.0171,36.14259 -9.3993,42.48794 -0.4773,1.27163 -1.7859,4.76006 -2.9079,7.75206 -7.4708,19.92204 -19.0773,41.25881 -27.5661,50.67559 -2.3225,2.57644 -6.0395,6.84441 -8.26,9.48441 -10.7972,12.83693 -38.5247,37.21683 -48.2344,42.41075 -6.6398,3.55187 -8.1013,7.58234 -9.3367,25.74925 -1.5008,22.06778 -2.0908,28.40986 -3.2451,34.88 -0.6594,3.696 -1.4995,11.184 -1.867,16.64 -0.3746,5.56275 -1.2352,12.1689 -1.9593,15.04 -0.7583,3.00691 -1.5513,9.28262 -1.9216,15.20602 -0.6566,10.5047 -1.1414,13.57318 -2.9059,18.39398 -1.2426,3.39475 -1.4292,12.41811 -0.3402,16.45094 1.2387,4.5872 2.7462,5.58452 33.653,22.26586 24.4428,13.19258 25.8326,14.01734 34.56,20.50957 10.7914,8.02777 16.4456,13.89158 23.627,24.50323 5.0713,7.49357 7.9223,13.44723 9.8386,20.54573 1.5051,5.57485 1.6535,7.21632 1.6535,18.28467 0,11.10138 -0.1455,12.69946 -1.6716,18.35635 -3.984,14.76755 -11.1186,24.36608 -27.0471,36.38739 -9.2039,6.94618 -13.3643,8.87688 -20.6124,9.56498 -3.0954,0.2939 -8.0576,1.0296 -11.0271,1.6349 -5.8892,1.2004 -11.2375,1.0292 -21.1865,-0.6783 -12.7094,-2.1813 -22.9685,-5.95107 -31.3954,-11.53636 -2.6065,-1.72755 -8.1104,-6.53133 -12.2309,-10.67501 -4.1205,-4.14368 -7.8645,-7.53369 -8.32,-7.53344 -0.4555,2.6e-4 -2.9881,2.63539 -5.6281,5.85581 -6.2504,7.62458 -9.7012,11.0665 -18.5936,18.54593 -9.2149,7.75057 -17.0132,12.83347 -25.0261,16.31157 -3.4438,1.4949 -8.6461,4.003 -11.5608,5.5738 -5.2633,2.8364 -7.9363,3.8945 -25.1395,9.9514 -16.1625,5.6905 -16.1385,5.6793 -16.9065,7.8824 -0.4007,1.1494 -0.6967,7.0165 -0.7011,13.894 -0.01,11.2818 -0.1217,12.3915 -2.1885,21.2133 -4.1289,17.6241 -9.5159,31.7963 -14.9371,39.2969 -2.7289,3.7757 -12.4074,15.1672 -17.0706,20.0921 -7.104,7.5024 -15.8332,12.6962 -24.3246,14.4729 -4.3982,0.9202 -22.1438,2.0614 -22.7516,1.463 z m 18.6045,-11.5136 c 0.8763,-1.991 1.0712,-2.0809 4.5516,-2.1001 3.51,-0.019 3.726,-0.1221 6.23,-2.9669 1.7836,-2.0262 3.2766,-3.0749 4.779,-3.3568 3.0246,-0.5674 4.717,-2.053 10.8761,-9.5475 4.6081,-5.6071 5.3095,-6.7767 5.0627,-8.4431 -0.3146,-2.1244 0.6749,-3.3353 3.9761,-4.8658 1.2615,-0.5849 2.5784,-2.1388 3.84,-4.5312 1.056,-2.0026 2.7204,-4.9199 3.6987,-6.483 0.9783,-1.5631 2.0942,-4.5304 2.4797,-6.5938 0.3855,-2.0635 1.3851,-5.196 2.2213,-6.9611 1.9992,-4.2201 1.9761,-8.1644 -0.073,-12.5672 -1.9366,-4.1601 -2.0782,-8.8363 -0.3648,-12.0547 l 1.1878,-2.2312 0.6794,2.5512 c 0.3737,1.4031 0.8719,3.7752 1.1072,5.2712 0.6675,4.2445 2.1801,3.5848 2.2013,-0.96 0.01,-2.024 0.106,-7.568 0.2146,-12.32 0.1093,-4.7832 -0.085,-9.2783 -0.4352,-10.0698 -0.348,-0.7864 -1.4644,-1.7944 -2.4809,-2.24 -1.7047,-0.7473 -1.8161,-1.0015 -1.4348,-3.2747 0.3682,-2.195 0.2836,-2.4256 -0.7737,-2.1091 -0.653,0.1954 -6.9472,1.6845 -13.9872,3.309 -7.04,1.6246 -17.552,4.1021 -23.36,5.5056 -23.4894,5.6764 -29.6899,6.7017 -61.4242,10.1572 -13.7422,1.4963 -18.5035,2.2371 -19.36,3.0122 -1.0227,0.9256 -1.1329,2.4034 -1.1068,14.8488 l 0.029,13.8208 1.411,-2.56 c 1.2574,-2.2811 1.69,-2.5716 3.9711,-2.6666 1.408,-0.059 3.856,-0.5585 5.44,-1.1107 1.584,-0.5523 4.0538,-1.0083 5.4885,-1.0134 3.1007,-0.011 4.7383,-1.4833 6.4175,-5.7693 2.5705,-6.5614 6.3798,-10.1499 11.3713,-10.7126 3.6551,-0.412 6.5145,0.5789 11.478,3.9774 6.196,4.2425 9.321,4.6702 15.8251,2.1656 3.1044,-1.1955 4.5051,-2.3587 6.449,-5.3556 2.3604,-3.6391 7.2687,-8.5358 9.3572,-9.335 4.4167,-1.6903 11.4327,0.1396 14.2455,3.7154 0.7024,0.893 1.8989,3.3291 2.659,5.4136 1.9407,5.3228 3.2605,6.201 8.7303,5.8096 5.085,-0.3638 7.1642,0.4384 10.252,3.9552 3.6047,4.1054 3.5401,7.9955 -0.2727,16.4284 -5.1745,11.4448 -11.2199,20.3264 -19.2318,28.2545 -8.6565,8.566 -18.1581,14.7167 -28.1007,18.1907 -4.4103,1.5409 -6.0236,1.7698 -12.4282,1.7629 -8.5263,-0.01 -12.1455,-1.0934 -19.2392,-5.7634 -5.0091,-3.2977 -18.8529,-17.3201 -22.0802,-22.3652 -1.7861,-2.7922 -2.5962,-3.5353 -3.685,-3.3803 -2.6216,0.3733 -2.0472,2.7423 2.0149,8.3102 3.0665,4.2033 3.687,5.4463 3.1488,6.3081 -0.5564,0.8909 0.5409,2.2838 6.4584,8.1982 6.0493,6.0461 7.5114,7.1862 9.656,7.5291 1.39,0.2222 2.6763,0.7925 2.8585,1.2672 0.1821,0.4747 1.9279,1.7642 3.8795,2.8656 1.9516,1.1014 3.5483,2.2631 3.5483,2.5815 0,0.3293 6.7099,0.5789 15.5645,0.5789 h 15.5645 l 0.9155,-2.08 z m -9.939,-12.9803 c 12.5129,-3.2155 27.8073,-14.2694 36.2781,-26.2197 3.6044,-5.085 8.7283,-14.9717 10.399,-20.0651 1.4716,-4.4865 0.8138,-5.9942 -3.2139,-7.3666 -1.6547,-0.5638 -3.2606,-0.8693 -3.5687,-0.6789 -0.308,0.1903 -0.565,2.7051 -0.5712,5.5883 -0.021,9.9655 -2.7993,18.2151 -8.1315,24.1458 -3.3322,3.7062 -6.3872,5.2257 -10.4428,5.1943 -3.6637,-0.028 -6.1637,-1.2082 -10.6363,-5.0199 -5.2225,-4.4508 -7.9376,-4.786 -14.6182,-1.8045 -2.2584,1.0078 -4.4955,2.879 -7.6023,6.3587 -11.8469,13.2687 -17.6864,13.4445 -25.9371,0.781 -4.7885,-7.3497 -6.0489,-11.304 -6.0977,-19.13 -0.033,-5.2643 -0.2421,-6.8776 -0.8922,-6.88 -1.3997,-0.01 -4.5907,3.6281 -4.5913,5.2276 -10e-4,3.1517 4.6515,15.9454 7.2904,20.0468 6.5002,10.1027 16.6246,17.772 26.5739,20.1297 3.7724,0.894 11.6873,0.7396 15.7618,-0.3075 z m -224.0079,-9.4699 c 0.6943,-0.4675 3.7104,-1.8116 6.7024,-2.9868 2.992,-1.1751 8.5598,-3.7446 12.373,-5.7099 3.8132,-1.9652 8.2477,-4.2466 9.8545,-5.0696 3.9102,-2.0028 21.4982,-19.2824 23.1956,-22.7887 0.7133,-1.4734 1.2969,-3.6059 1.2969,-4.7388 0,-1.864 0.452,-2.3471 4.7522,-5.078 7.9414,-5.0434 7.302,-4.3866 5.6564,-5.8106 -2.3634,-2.0452 -2.7904,-4.0613 -1.7258,-8.1486 0.5216,-2.0025 0.8693,-3.7177 0.7728,-3.8113 -0.097,-0.094 -4.9276,-0.9413 -10.7356,-1.8837 -5.808,-0.9423 -23.4927,-3.8521 -39.2992,-6.4661 -15.8066,-2.614 -28.8218,-4.6701 -28.9229,-4.569 -0.101,0.1009 2.7261,2.1923 6.2825,4.6474 6.7304,4.6462 8.6298,6.9907 6.0545,7.4732 -0.7672,0.1438 -9.1528,-2.5663 -18.6346,-6.0223 -9.4819,-3.456 -17.4744,-6.049 -17.7611,-5.7623 -0.2867,0.2867 0.3893,1.9465 1.5022,3.6883 1.113,1.7418 2.964,5.183 4.1135,7.647 1.1495,2.464 3.0474,5.3898 4.2176,6.5018 3.8278,3.6377 9.457,5.0158 13.7658,3.37 2.8631,-1.0937 8.8228,-0.8049 11.8738,0.5753 5.62,2.5424 7.5279,5.8569 7.5279,13.0778 0,8.9535 -2.7468,15.8112 -9.0184,22.5155 -4.5706,4.886 -8.5418,6.6068 -13.5235,5.8597 -5.1263,-0.7687 -8.2185,-3.3339 -11.3454,-9.4116 -3.6294,-7.0544 -5.347,-9.2751 -8.3643,-10.8144 -2.806,-1.4316 -5.2511,-1.604 -8.1945,-0.578 -4.5784,1.5961 -2.9223,7.9503 3.7245,14.2903 4.58,4.3686 8.9485,6.4734 16.8136,8.101 9.5822,1.983 11.0271,1.8341 22.228,-2.2893 18.4558,-6.7943 24.7992,-10.6539 37.3952,-22.7526 4.6006,-4.4191 9.3005,-8.6865 10.4442,-9.4832 1.7416,-1.2133 1.9718,-1.6496 1.4175,-2.6855 -0.3641,-0.6803 -1.2327,-1.2368 -1.9303,-1.2368 -0.6975,0 -7.1771,1.4782 -14.3991,3.285 -7.2219,1.8068 -13.2851,3.1307 -13.4738,2.942 -0.4869,-0.4869 2.2893,-5.7498 3.5198,-6.6723 1.131,-0.848 14.4837,-4.1921 21.4585,-5.3741 3.9015,-0.6612 4.6777,-0.6187 6.4847,0.3544 3.6104,1.9443 4.5352,6.6967 2.2468,11.545 -1.7368,3.6796 -18.6004,20.6289 -24.0577,24.18 -9.6727,6.2941 -25.8595,13.1927 -36.4145,15.5195 -3.9316,0.8667 -6.826,1.0414 -12.9021,0.779 -4.5414,-0.1961 -8.0868,-0.085 -8.4363,0.2645 -0.3316,0.3316 -0.4711,1.2918 -0.3101,2.1339 0.2862,1.4976 0.407,1.5243 5.5049,1.2167 4.1718,-0.2516 14.7987,0.1334 25.7099,0.9314 0.7136,0.053 1.8656,-0.2876 2.56,-0.7552 z m 202.7294,-13.0698 c 2.7511,-2.0736 7.7178,-8.5422 7.0183,-9.1405 -0.2669,-0.2283 -2.8739,-1.3827 -5.7933,-2.5655 -2.9194,-1.1827 -5.6156,-2.521 -5.9915,-2.9739 -1.155,-1.3917 0,-3.9616 2.5116,-5.5747 1.3133,-0.8445 3.7548,-2.9415 5.4255,-4.6599 l 3.0376,-3.1247 -4.3176,-4.2343 c -4.6663,-4.5763 -6.1612,-5.3359 -9.1914,-4.6704 -3.1175,0.6848 -3.9859,3.5495 -3.9219,12.9376 0.029,4.3087 -0.1751,7.9751 -0.4543,8.1477 -1.0053,0.6213 2.2162,11.89 4.4422,15.5386 1.6173,2.6509 4.0023,2.7564 7.2348,0.32 z m 45.7388,-8 c 2.1573,-2.303 2.8031,-4.8179 3.1762,-12.3695 0.392,-7.9337 -0.3032,-11.2377 -2.6941,-12.8042 -1.2189,-0.7987 -1.4256,-1.3833 -1.1796,-3.3373 0.1641,-1.303 -0.081,-3.4354 -0.545,-4.7386 l -0.8433,-2.3697 -2.88,1.2817 c -3.3281,1.481 -10.24,8.0033 -10.24,9.6627 0,1.5713 2.2396,2.8281 6.6172,3.7135 2.0555,0.4158 4.2875,1.3061 4.96,1.9786 2.3121,2.3121 1.5872,3.5764 -4.1859,7.3007 -5.8212,3.7553 -7.3556,5.5429 -6.0785,7.0815 0.4188,0.5048 2.4876,2.0704 4.5973,3.4791 4.4806,2.992 7.2324,3.324 9.2957,1.1215 z m -262.7633,-4.8 c 4.9772,-6.5626 7.465,-11.2735 8.2639,-15.6482 1.1221,-6.1444 0.6763,-6.5509 -6.6635,-6.0754 -8.5587,0.5545 -9.293,1.8036 -4.2829,7.2854 2.5159,2.7528 3.2,3.963 3.2,5.6607 0,1.9352 -0.216,2.1971 -2.08,2.5223 -1.144,0.1995 -3.664,0.094 -5.6,-0.2337 -2.0594,-0.349 -3.7671,-0.36 -4.1154,-0.026 -0.8133,0.7787 2.0427,6.7481 3.7701,7.8799 1.2662,0.8296 2.954,1.4257 4.5338,1.6012 0.3676,0.041 1.706,-1.2938 2.974,-2.9658 z m 240.123,-4.6419 c 1.273,-1.409 2.3145,-3.1513 2.3145,-3.8717 0,-1.7219 -1.7602,-5.0864 -2.6609,-5.0864 -1.1242,0 -4.9331,2.5408 -5.9189,3.9482 -1.0433,1.4895 -0.4383,4.4596 1.2996,6.3799 1.5601,1.7239 2.3732,1.4996 4.9657,-1.37 z m -255.9824,-12.2072 c 2.046,-2.4317 2.0459,-2.5904 -0.01,-5.0288 l -1.6628,-1.9762 -3.1372,2.6267 c -1.7255,1.4446 -3.1322,2.8157 -3.1262,3.0469 0.019,0.7252 4.079,3.3005 5.2031,3.3005 0.5896,0 1.8177,-0.8861 2.729,-1.9691 z m -15.6231,-1.5996 c 0,-0.2027 -1.2553,-2.0027 -2.7895,-4 -5.1182,-6.6631 -4.6767,-8.4313 2.1055,-8.4313 2.6027,0 4.7468,-0.3419 5.4724,-0.8725 1.1571,-0.846 1.1474,-0.9946 -0.3191,-4.916 -1.6517,-4.4167 -4.6126,-8.2915 -6.3359,-8.2915 -1.45,0 -4.9676,3.6852 -4.1772,4.3763 0.3321,0.2903 1.798,0.867 3.2575,1.2816 1.4596,0.4146 2.8283,1.2085 3.0416,1.7645 0.3279,0.8542 0,0.9455 -2.1017,0.59 -3.3682,-0.5691 -7.4018,0.6184 -8.9993,2.6493 -1.8791,2.3888 -1.8214,7.7086 0.1106,10.2119 1.9309,2.5018 2.935,3.305 5.9351,4.7474 2.4996,1.2018 4.8,1.6285 4.8,0.8903 z m -162.559,-39.0075 c 3.2831,-1.0724 10.5349,-6.7318 11.7994,-9.2082 1.2706,-2.4885 1.6645,-5.2372 1.1084,-7.7356 l -0.4986,-2.24 -0.7856,3.0846 c -1.138,4.4688 -3.5991,7.7787 -7.9383,10.6763 -3.695,2.4674 -10.7097,5.1228 -13.5138,5.1155 -3.652,-0.01 -6.5292,-1.5147 -10.5152,-5.5006 -2.2527,-2.2527 -4.2132,-4.0958 -4.3566,-4.0958 -0.1434,0 -0.2607,0.6833 -0.2607,1.5184 0,1.5132 4.0663,5.8501 6.914,7.3741 4.5104,2.4139 12.3998,2.8561 18.047,1.0113 z m 356.159,0.6583 c 1.056,-0.1164 5.952,-0.3965 10.88,-0.6224 27.782,-1.2738 46.2837,-4.2766 88.4812,-14.3603 30.8678,-7.3763 41.7057,-10.6823 63.5188,-19.37567 23.9208,-9.53348 33.8187,-14.71338 43.84,-22.94314 6.3061,-5.17869 14.4937,-13.80013 16.6959,-17.58061 l 1.8641,-3.2 0.1071,-13.12 c 0.059,-7.216 0.1684,-13.84 0.2433,-14.72 0.075,-0.88 -1.0533,-5.63155 -2.5072,-10.55898 -2.9545,-10.01401 -3.142,-11.72326 -1.5073,-13.74201 1.0324,-1.27495 1.3053,-1.3257 2.9942,-0.55616 1.4628,0.66649 2.5268,2.27469 4.9997,7.55731 3.2587,6.96096 13.6375,22.80192 20.7693,31.69984 11.9508,14.91034 25.2004,26.01779 39.5409,33.14803 15.1863,7.55085 25.5335,8.96634 36.0439,4.93075 31.827,-12.22028 42.8008,-37.34924 27.6881,-63.40268 -6.3972,-11.02829 -14.934,-19.17901 -30.9649,-29.56455 -32.4597,-21.02867 -35.4524,-23.16397 -59.0071,-42.10233 -14.4491,-11.61722 -24.6333,-21.29005 -24.6488,-23.41101 -0.01,-0.65901 -0.1877,-1.86656 -0.4065,-2.68346 -0.3797,-1.4183 -0.2857,-1.46438 2.0888,-1.02342 2.8036,0.5207 3.7911,1.08006 10.3203,5.84614 2.5486,1.86042 4.8559,3.38253 5.1273,3.38253 0.2714,0 2.1695,-10.296 4.2178,-22.88 4.3203,-26.5417 10.9504,-67.19949 14.3016,-87.70214 1.5569,-9.52468 2.1182,-14.47508 1.6901,-14.90324 -0.3526,-0.35257 -1.6243,-0.79104 -2.8259,-0.97427 -1.885,-0.28749 -3.8972,0.61575 -14.6671,6.58323 -15.4152,8.54144 -23.6051,12.40826 -33.127,15.64071 -17.4468,5.92275 -34.8287,9.25869 -62.8038,12.05337 -21.1289,2.11079 -60.8324,1.52128 -81.0268,-1.203 -5.28,-0.71226 -13.488,-1.60256 -18.24,-1.97837 -4.752,-0.37587 -9.792,-0.85229 -11.2,-1.05875 -8.4432,-1.23808 -65.5486,-14.92768 -86.4,-20.71226 -18.191,-5.04653 -54.5019,-16.37062 -90.24,-28.14278 -40.5045,-13.34215 -75.2296,-23.30125 -101.44,-29.093 -20.526,-4.53561 -29.5342,-5.37753 -55.68,-5.20396 -21.8649,0.14515 -25.805,0.62291 -37.6103,4.56076 -6.0889,2.03098 -16.9275,7.141 -21.0691,9.93325 -5.1153,3.44871 -21.1707,16.56672 -21.5792,17.63123 -0.7612,1.98356 -0.3353,4.6626 2.1325,13.41408 2.3081,8.18509 15.0079,56.74176 23.5065,89.87514 6.2633,24.41888 18.2131,69.65011 23.3334,88.32 5.4229,19.77306 9.9598,32.82285 15.3783,44.23354 l 3.2923,6.93331 3.8782,-3.34343 c 7.7879,-6.71411 11.9621,-10.899 12.3289,-12.36044 0.2615,-1.04199 -0.82,-4.06304 -3.5684,-9.96839 -5.7426,-12.3383 -7.764,-20.26361 -8.5432,-33.49459 -0.7819,-13.27846 3.4401,-29.98387 10.7153,-42.39706 1.2566,-2.14406 2.2848,-4.59148 2.2848,-5.43865 0,-1.84333 -0.031,-1.8745 -10.56,-10.59514 -9.8965,-8.19686 -12.48,-11.57222 -12.48,-16.30528 0,-6.95974 5.6881,-12.27481 13.1567,-12.29395 5.2224,-0.0134 7.3782,1.50125 13.677,9.60941 7.3502,9.4615 9.1122,11.18067 11.4596,11.18067 1.2607,0 2.7472,-0.66381 4.0844,-1.82394 8.7422,-7.58483 22.4354,-14.06598 34.8863,-16.51212 6.9086,-1.35732 20.9409,-1.50432 27.696,-0.29024 15.9677,2.87001 32.4111,11.51315 44.8985,23.6 18.4844,17.89145 27.7726,41.98284 25.4955,66.12908 -0.8103,8.59284 -1.3498,11.22452 -3.8645,18.84999 -7.9105,23.98771 -27.2458,43.79411 -51.1695,52.41638 -9.0567,3.26407 -15.9851,4.39034 -27.2,4.42157 -10.9404,0.0307 -16.4845,-0.79533 -25.8378,-3.84858 -2.6318,-0.85907 -5.3829,-1.47648 -6.1136,-1.37203 -0.9606,0.13728 -2.2151,1.90874 -4.5286,6.39495 -4.8065,9.32019 -8.1301,12.21779 -14.0141,12.21779 -7.5006,0 -14.3725,-6.41043 -13.6589,-12.74157 0.2572,-2.28205 1.2435,-3.89702 5.8313,-9.5488 4.1163,-5.07098 5.5217,-7.27699 5.5217,-8.66739 0,-3.67687 -3.6446,-1.64749 -6.814,3.79411 -1.3563,2.3287 -3.6407,5.464 -5.0763,6.96736 -2.3956,2.50861 -2.8747,2.73344 -5.8247,2.73344 -2.1839,0 -4.1618,-0.50374 -6.1697,-1.57133 -5.6723,-3.016 -5.066,-1.69901 7.42,16.11866 4.0035,5.71302 9.1298,12.57312 11.3919,15.24473 12.8847,15.21773 34.6371,29.24739 57.397,37.01956 17.4546,5.9604 71.9414,18.7578 90.0851,21.1583 10.8312,1.433 57.9768,5.4601 71.3507,6.0946 9.8918,0.4693 40.5965,0.2663 45.76,-0.3024 z m -76.6608,-21.4661 c -3.7036,-0.9252 -5.8813,-2.2578 -8.2922,-5.0744 -2.6641,-3.1124 -3.687,-6.2684 -3.687,-11.37541 0,-2.11488 -0.4039,-4.99008 -0.8976,-6.38925 -0.9063,-2.56877 -8.8078,-16.08038 -13.2028,-22.57696 -2.8959,-4.2807 -8.6551,-9.81984 -11.7389,-11.29037 -1.4271,-0.68057 -2.5139,-1.78291 -2.9275,-2.96953 -1.2512,-3.58893 -0.017,-3.75463 10.8468,-1.45684 15.3315,3.24269 21.1528,3.83175 37.76,3.8208 11.328,-0.008 17.9003,-0.31833 23.68,-1.12025 7.0228,-0.97434 12.814,-2.11898 12.793,-2.52845 0,-0.0744 -0.4136,-1.47558 -0.9108,-3.1136 -0.8747,-2.88211 -0.859,-2.99027 0.487,-3.35123 8.1658,-2.19021 19.0075,7.14694 19.1488,16.49145 0.056,3.72634 -1.0365,5.51802 -3.3658,5.51802 -2.2164,0 -3.0081,-1.04614 -5.4563,-7.20954 l -1.7197,-4.32953 -2.6481,2.34765 c -3.6742,3.25721 -6.8204,8.1502 -10.3766,16.13772 -8.6297,19.38292 -12.2513,25.53135 -18.3816,31.20692 -6.5426,6.0573 -14.7009,8.864 -21.1107,7.2628 z m 8.3727,-8.119 c 3.0975,-2.0085 3.4585,-2.8545 0.9281,-2.1753 -2.5326,0.6798 -5.5434,-0.038 -5.8026,-1.38447 -0.12,-0.6231 0.5245,-2.40016 1.4322,-3.94903 2.2823,-3.89446 2.185,-4.96089 -0.4296,-4.7088 -1.8032,0.17389 -2.3143,0.66311 -3.84,3.67533 -2.431,4.7994 -2.344,7.22547 0.32,8.93167 2.7615,1.7684 4.1791,1.6938 7.3919,-0.3894 z m 193.1548,-50.73068 c -2.9779,-0.94087 -5.3706,-3.74676 -8.8207,-10.344 -2.4223,-4.63194 -3.751,-6.45888 -5.3068,-7.29671 -2.0363,-1.09664 -2.2489,-1.0736 -11.2873,1.22592 -23.4808,5.97376 -42.7635,4.29504 -62.5217,-5.44294 -14.3994,-7.09683 -26.1687,-17.6752 -35.5009,-31.90861 -5.5669,-8.49056 -10.3799,-19.87002 -12.6218,-29.8423 -2.1372,-9.50624 -1.7435,-24.11354 0.9512,-35.29536 6.4855,-26.91245 23.221,-47.83117 47.9565,-59.944 13.2865,-6.50624 25.7405,-9.33869 39.3163,-8.94164 19.9142,0.5824 37.6824,7.24749 52.5639,19.71751 1.9335,1.62016 4.1259,2.94579 4.872,2.94579 1.7267,0 4.5989,-2.29562 12.8909,-10.30304 7.2813,-7.03136 11.6892,-10.18458 14.207,-10.16288 4.5353,0.039 12.1336,6.05984 13.511,10.70592 1.8795,6.34042 -1.3042,10.39776 -15.5226,19.78234 -5.5255,3.64691 -10.2376,6.94035 -10.4715,7.31872 -0.2339,0.37843 1.3219,4.19142 3.4571,8.47347 6.5795,13.19449 8.9695,22.05843 9.5194,35.30547 0.6293,15.15917 -2.098,26.86054 -10.0457,43.10138 -2.4711,5.04972 -4.493,9.86918 -4.493,10.70988 0,1.76333 1.315,3.22823 9.3864,10.45658 6.0921,5.45574 7.8936,8.09677 7.8936,11.57216 0,6.11302 -6.8519,12.7952 -13.12,12.7952 -4.8728,0 -7.6885,-2.06573 -13.714,-10.06093 -4.0372,-5.35712 -7.3386,-8.35897 -8.0057,-7.27955 -0.6893,1.11533 0.8169,3.57139 5.3386,8.70528 5.4643,6.20397 6.703,8.58688 6.7214,12.92883 0.012,2.76608 -0.3164,3.73984 -1.9404,5.76 -1.0749,1.33715 -3.0806,3.06029 -4.4572,3.82919 -2.896,1.61766 -8.0772,2.33459 -10.756,1.48832 z m -43.2993,-32.99226 c 9.0459,-0.7527 21.3068,-4.72614 29.0401,-9.4112 18.3406,-11.1113 29.5421,-28.02368 32.7472,-49.44288 4.1132,-27.48768 -5.6553,-51.66726 -27.4445,-67.93171 -21.5653,-16.09722 -50.5191,-18.65978 -75.0224,-6.63994 -7.828,3.84 -12.6551,7.38202 -18.6245,13.66618 -9.2987,9.78918 -14.8331,20.43161 -17.8606,34.34547 -0.887,4.07603 -1.1816,8.08774 -1.1751,16 0.01,9.45958 0.1959,11.29363 1.8064,17.6 6.4892,25.41126 24.6361,43.78515 49.6473,50.26835 5.6234,1.45767 15.1912,2.51053 19.5587,2.15232 1.408,-0.11545 4.7053,-0.38848 7.3274,-0.60659 z m -10.1713,-33.632 c -5.3078,-1.04077 -11.656,-4.63437 -17.9008,-10.13338 -9.1395,-8.0478 -10.9303,-10.67609 -12.2438,-17.9687 -0.412,-2.288 -1.3662,-6.176 -2.1204,-8.64 -1.1035,-3.6055 -1.3566,-5.97914 -1.2969,-12.16 0.063,-6.55949 0.3995,-8.9248 2.3032,-16.2119 l 2.2289,-8.53191 6.6568,-6.74157 c 15.3209,-15.51577 27.0441,-21.36691 40.94,-20.43347 17.8755,1.20071 34.0605,12.88122 43.1198,31.11885 4.0161,8.08486 5.4387,12.46202 6.3512,19.54061 0.9076,7.04083 0.6268,8.41888 -2.0273,9.95078 -0.9497,0.54816 -2.1561,1.8409 -2.6808,2.87264 -0.5246,1.03181 -1.8499,3.31597 -2.9449,5.07597 -1.0951,1.76 -3.1507,5.68486 -4.568,8.72186 -5.6179,12.03814 -18.1443,20.19251 -35.6931,23.23532 -6.1756,1.07079 -15.4978,1.21204 -20.1239,0.3049 z m 3.0485,-19.67731 c 0.5051,-5.26951 -7.2991,-10.83008 -13.8046,-9.83584 -1.7555,0.26829 -1.7794,0.73965 -0.2115,4.16621 2.2355,4.88537 7.1349,8.25376 11.5715,7.95545 2.0352,-0.13683 2.2587,-0.34573 2.4446,-2.28582 z m 39.3658,-41.93773 c 4.7256,-1.97453 7.3512,-7.512 6.1709,-13.01523 -1.1774,-5.49024 -4.4743,-9.29511 -9.5168,-10.98343 -5.3987,-1.80755 -12.0263,0.18586 -14.4083,4.33351 -2.6143,4.55206 -1.1406,12.70976 2.9927,16.56627 3.5776,3.33805 10.6405,4.82074 14.7615,3.09888 z m -217.0528,74.44525 c -2.4361,-2.26963 -3.4372,-5.60576 -3.1964,-10.65197 0.1852,-3.88045 0.5212,-5.02886 2.149,-7.34483 3.0856,-4.3904 7.0432,-6.45351 13.0458,-6.80103 4.3677,-0.2528 5.4822,-0.0826 8.4981,1.29812 5.7598,2.63692 10.558,8.54022 9.6777,11.90656 -0.4996,1.91052 -3.6047,1.82777 -7.9883,-0.21287 -4.3308,-2.01613 -7.976,-2.07027 -10.8489,-0.16109 -2.0871,1.38695 -2.8801,2.64922 -6.2628,9.96832 -1.6811,3.63732 -2.8297,4.0898 -5.0742,1.99879 z m 128.1845,-140.15911 c -11.8578,-1.55065 -20.6538,-5.90291 -26.7021,-13.21222 -1.7314,-2.09222 -2.4,-3.50502 -2.4,-5.07066 0,-1.9006 0.2031,-2.1703 1.6347,-2.1703 0.9327,0 2.513,0.82202 3.68,1.91424 2.8305,2.64909 8.3002,5.4471 13.2453,6.77549 6.072,1.63117 17.3027,1.41997 35.52,-0.66778 23.7831,-2.72569 40.0836,-1.84889 53.5449,2.88013 10.1954,3.5817 14.7358,7.74394 10.5355,9.65773 -1.1842,0.53952 -4.6502,0.18035 -15.7013,-1.6272 l -14.1817,-2.31949 -22.5873,2.25344 c -22.5311,2.24781 -29.2904,2.54093 -36.588,1.58662 z m -317.0849,-34.19244 c -2.4474,-2.94893 9.7042,-17.86112 20.4628,-25.11124 13.9371,-9.39219 29.4918,-12.1568 49.28,-8.75884 5.1874,0.89075 17.7054,3.92089 27.0888,6.55712 7.1766,2.01625 11.6562,6.76768 7.9657,8.44915 -1.1567,0.52704 -3.0876,0.37273 -8.2037,-0.65575 -22.5718,-4.5374 -43.6549,-5.05536 -57.7161,-1.41798 -9.9251,2.56742 -17.9345,6.46214 -25.3732,12.33837 -10.3586,8.18272 -12.6428,9.63725 -13.5043,8.59917 z m -67.6655,298.78438 c 4.422,-2.2342 7.2478,-6.1627 6.5561,-9.1141 -0.218,-0.9301 -2.1336,-7.0976 -4.2569,-13.7056 -3.014,-9.38004 -4.1881,-12.22926 -5.354,-12.99323 -1.3901,-0.91078 -2.1291,-0.77216 -10.6752,2.00243 -5.05,1.63956 -9.3764,3.16647 -9.6143,3.39322 -0.238,0.22669 1.5681,4.38426 4.0134,9.23898 2.4453,4.8548 5.211,10.7588 6.1459,13.12 2.2518,5.6871 3.2711,7.1778 5.6028,8.1934 2.6399,1.15 5.1265,1.1056 7.5822,-0.1351 z m -36.2183,-36.48454 c 0.1317,-0.39572 -1.2659,-2.36666 -3.1059,-4.37991 -2.5745,-2.81689 -3.2021,-3.88774 -2.7232,-4.64685 0.3422,-0.54259 4.6437,-3.27686 9.5589,-6.07622 13.0114,-7.41037 19.3039,-11.73146 23.8068,-16.3479 4.8777,-5.0009 8.2532,-11.4992 9.0536,-17.4297 1.3484,-9.99194 -3.1312,-24.81645 -10.2732,-33.9975 -7.4997,-9.64077 -16.0807,-13.91309 -26.4279,-13.15789 -15.8071,1.1536 -28.591,11.14822 -36.828,28.79283 -4.9925,10.6944 -6.2505,20.55398 -3.9081,30.63053 3.687,15.86131 17.3751,30.65977 33.0336,35.71347 6.0085,1.9392 7.4133,2.10086 7.8134,0.89914 z m 21.3066,-3.51565 c 6.7807,-1.48378 8.8779,-2.19559 9.7457,-3.30778 0.6082,-0.77945 1.1122,-1.70809 1.12,-2.06368 0.027,-1.21651 -3.2358,-4.15347 -4.614,-4.15347 -1.3291,0 -20.9821,5.6377 -21.5925,6.19411 -0.1655,0.15079 0.3853,1.56743 1.2238,3.1481 1.4149,2.66713 1.6668,2.84512 3.5008,2.47366 1.0869,-0.22016 5.8642,-1.25107 10.6162,-2.29094 z m 33.6,-1.29203 c 11.0675,-2.77031 23.6798,-9.21255 33.8153,-17.27252 5.4761,-4.35462 5.62,-4.53638 4.5384,-5.73152 -0.6144,-0.67884 -2.2233,-1.53216 -3.5754,-1.89625 -2.006,-0.54016 -2.4583,-0.95181 -2.4583,-2.23725 0,-1.34886 0.299,-1.57664 2.08,-1.58413 2.9809,-0.0128 4.96,-0.65216 4.96,-1.60307 0,-0.45242 -1.2976,-3.86022 -2.8835,-7.57293 -1.586,-3.71264 -3.1716,-7.5079 -3.5236,-8.43373 l -0.64,-1.68345 -2.5618,2.02899 -2.5618,2.02893 -1.2606,-2.77799 c -0.6933,-1.52787 -1.2669,-3.275 -1.2747,-3.88249 -0.01,-0.60749 -0.5678,-2.01517 -1.2447,-3.12819 -1.3282,-2.18407 -0.9961,-4.22036 1.0586,-6.49082 0.9556,-1.05587 0.8974,-1.10157 -0.937,-0.73466 -1.777,0.3554 -2.1994,0.0833 -4.6152,-2.97292 -3.4839,-4.40743 -3.3572,-6.09709 0.4443,-5.92775 2.9399,0.13101 3.3955,-0.5527 1.8115,-2.71885 -0.8458,-1.15673 -1.7741,-1.2423 -13.4728,-1.2423 -10.8866,0 -12.5208,0.12819 -12.2381,0.96 3.6337,10.69338 3.7724,11.528 4.0418,24.32 l 0.2629,12.48 -2.6225,5.3687 c -1.859,3.80557 -3.8968,6.69389 -6.999,9.92 -2.4069,2.50324 -4.726,5.22522 -5.1534,6.0489 -1.9593,3.77581 0.1979,12.00518 3.9816,15.18893 2.1233,1.78669 2.0691,1.78893 11.028,-0.45363 z m 150.08,-57.94138 c 6.0863,-1.19366 13.307,-4.06784 21.4483,-8.53754 5.169,-2.83782 7.6159,-4.73376 12.7917,-9.91155 5.2966,-5.29862 7.0316,-7.56121 10.0634,-13.12384 3.883,-7.12422 8.0384,-17.46957 10.2532,-25.52653 1.8609,-6.76934 1.9778,-21.39494 0.2232,-27.91206 -5.8369,-21.67949 -23.2576,-41.03219 -42.5856,-47.30842 -7.5195,-2.44179 -11.9127,-3.12902 -19.8913,-3.11155 -19.4625,0.0422 -37.6796,6.80128 -50.8436,18.86375 -5.9813,5.48076 -10.1073,11.1422 -14.1358,19.39622 -11.5182,23.59949 -10.3836,47.66726 3.232,68.55763 11.8451,18.17395 29.0701,27.87258 53.1245,29.912 3.8318,0.32493 10.9188,-0.23878 16.32,-1.29811 z m -14.08,-35.38035 c -7.933,-1.49562 -18.4774,-7.67898 -25.3188,-14.84711 -5.0216,-5.26144 -6.4653,-8.40044 -7.6273,-16.58348 -0.5217,-3.67431 -1.2572,-7.68858 -1.6345,-8.92058 -1.1306,-3.69222 -0.8045,-13.81389 0.6248,-19.3904 2.9923,-11.67578 9.4609,-20.18464 23.1114,-30.40141 7.834,-5.86336 10.0787,-6.69107 18.2044,-6.71302 20.6062,-0.0557 36.0466,7.70259 47.0726,23.65222 10.2614,14.84359 13.2856,29.44576 10.242,49.45242 -1.3081,8.59878 -2.3642,12.22669 -3.8211,13.1271 -0.3275,0.20243 -2.3664,-2.08505 -4.5309,-5.08326 -4.4997,-6.23296 -4.1076,-6.21472 -9.3057,-0.43315 -5.9327,6.59859 -15.4661,11.7911 -26.6537,14.5175 -7.2782,1.77363 -15.9141,2.46202 -20.3632,1.62317 z m -0.3658,-17.67687 c 0.5532,-0.55315 1.0058,-1.32249 1.0058,-1.70963 0,-0.3872 -2.3162,-3.02637 -5.1471,-5.86489 l -5.1471,-5.1609 -2.3729,1.27053 c -2.8018,1.50022 -3.1885,3.06246 -1.4546,5.87584 1.5358,2.49184 3.644,3.92697 7.9598,5.41862 4.0455,1.39827 3.932,1.39456 5.1561,0.17043 z m 40.5048,-43.53696 c 5.5886,-4.26265 5.3913,-12.60204 -0.4319,-18.25164 -5.4136,-5.25223 -12.5869,-5.59527 -17.093,-0.81741 -5.7709,6.11891 -1.8249,18.05971 6.8259,20.65529 3.5237,1.05728 8.1281,0.37466 10.699,-1.58624 z m -175.9141,56.66324 c 3.6601,-0.7849 5.4338,-2.4146 5.3534,-4.91866 -0.031,-0.96902 -1.0988,-5.07392 -2.3727,-9.12192 -2.5519,-8.10938 -4.2505,-14.98707 -8.0013,-32.39757 -1.3742,-6.37869 -3.9886,-16.45869 -5.81,-22.4 -1.8213,-5.94131 -4.5531,-15.65542 -6.0706,-21.58688 -1.5176,-5.93139 -2.9379,-10.96307 -3.1563,-11.18144 -1.2671,-1.26707 -1.5825,2.76352 -1.2849,16.41741 0.3416,15.66624 -0.081,20.67168 -2.2697,26.89965 -0.6891,1.96045 -1.2528,5.04045 -1.2528,6.84441 0,6.54612 -5.4398,14.14343 -17.6442,24.64244 -3.3628,2.89286 -5.8805,5.46483 -5.595,5.71545 1.1297,0.99181 9.0685,3.70547 12.9992,4.44333 6.677,1.2535 10.6004,3.49664 16.32,9.33069 7.6482,7.80134 10.7954,9.02656 18.7849,7.31309 z m -72.3924,-6.84058 c 12.2323,-4.07949 12.9537,-4.40909 12.9581,-5.92 0,-0.88 -0.5703,-2.54298 -1.273,-3.69549 -0.7027,-1.15251 -1.2776,-2.71168 -1.2776,-3.46489 0,-0.91776 3.7923,-5.19808 11.4965,-12.97588 9.0798,-9.16665 11.8429,-12.363 13.1443,-15.20569 1.5085,-3.29498 2.9004,-10.09805 2.066,-10.09805 -0.1933,0 -2.1746,2.952 -4.403,6.56 -7.4284,12.02746 -11.0193,15.78477 -23.8514,24.95699 -9.9609,7.11994 -9.9724,7.13088 -9.9724,9.5088 0,2.57152 -1.3136,2.92352 -6.1256,1.64128 -3.0952,-0.82477 -6.742,-1.05869 -16.0595,-1.03021 -13.1009,0.0403 -17.1749,0.46676 -17.1749,1.79866 0,0.65837 1.8315,0.88755 8.0004,1.00122 4.7358,0.0873 8.5891,0.46246 9.4429,0.91942 0.7933,0.42458 3.06,2.92115 5.0371,5.5479 1.9771,2.62676 3.9196,4.77594 4.3167,4.77594 0.3971,0 6.5511,-1.944 13.6754,-4.32 z m -9.4325,-16.78144 c 9.2809,-2.66656 19.0086,-8.79034 26.6531,-16.77856 9.2544,-9.67046 14.0207,-21.00262 15.5155,-36.88851 1.0505,-11.1648 -1.0526,-28.37773 -4.5145,-36.94842 -5.2979,-13.11648 -18.8445,-25.38157 -31.7177,-28.71737 -4.2634,-1.10477 -13.3796,-1.33748 -14.8964,-0.38029 -0.7361,0.46451 -1.011,2.26957 -1.1785,7.73971 -0.1202,3.92365 0.039,7.39162 0.3542,7.70656 0.3149,0.31494 4.1572,1.58579 8.5384,2.82406 4.3812,1.23828 9.7433,3.11623 11.9158,4.17325 5.0803,2.47194 9.6768,7.45043 12.0636,13.06643 1.2447,2.92852 2.1069,4.17818 2.792,4.04628 2.166,-0.41716 0.5537,-9.03693 -3.5401,-18.9264 -1.226,-2.96173 -2.0753,-5.53882 -1.8872,-5.72685 0.957,-0.95699 3.6267,2.27245 6.7818,8.20371 1.936,3.63949 4.1192,7.5056 4.8516,8.5913 2.2946,3.40147 2.9483,6.024 1.9836,7.95776 -0.9196,1.84358 -9.9652,13.17196 -14.4056,18.04128 -2.4578,2.69523 -5.9692,4.51129 -6.9077,3.57273 -0.1686,-0.16857 1.0166,-2.85997 2.6338,-5.98086 3.3406,-6.44685 4.1025,-10.51629 2.904,-15.51194 -1.5914,-6.63379 -7.0477,-11.46624 -16.766,-14.84883 -7.4741,-2.60147 -11.3447,-2.52832 -16.8048,0.3177 -9.2568,4.82502 -15.9012,11.88236 -21.4841,22.81958 -2.0807,4.07603 -4.3729,8.10803 -5.0939,8.96 l -1.3109,1.54912 -1.1926,-1.40294 c -1.4894,-1.75213 -1.252,-6.48282 0.5654,-11.26567 0.6802,-1.79033 1.1032,-3.38873 0.9399,-3.55206 -0.4489,-0.44883 -21.4552,-3.92122 -23.78039,-3.93088 -3.32616,-0.0141 -3.98391,0.57651 -5.26558,4.72608 -4.78147,15.48057 -4.06857,29.68397 2.15553,42.94547 6.37124,13.5751 17.20334,23.39123 33.62434,30.47072 9.5547,4.11923 14.3161,5.08115 23.6734,4.7824 5.6428,-0.18016 9.4143,-0.66176 12.8,-1.63456 z m -57.5711,-32.62765 c -2.3622,-2.5287 -6.8739,-10.0679 -8.31691,-13.89766 -1.65575,-4.3945 -2.17475,-9.16935 -1.33545,-12.28627 0.39202,-1.45581 0.93157,-2.64698 1.199,-2.64698 0.26744,0 2.28456,4.27885 4.48256,9.50854 5.567,13.24557 6.8142,14.35808 15.7581,14.05511 4.5317,-0.15347 5.5614,0.006 6.704,1.04038 0.7425,0.67194 1.1272,1.4329 0.8549,1.69101 -0.6143,0.58214 -14.9013,4.42496 -16.4514,4.42496 -0.6216,0 -1.9243,-0.85011 -2.8948,-1.88909 z m 10.8511,-56.20851 c 0,-2.39277 -6.3477,-7.17926 -9.5361,-7.19059 -3.5925,-0.0128 -11.58393,2.04621 -11.58393,2.98464 0,0.69011 6.65813,3.08825 11.84003,4.26451 2.2253,0.50515 9.28,0.46061 9.28,-0.0582 z m 21.12,-8.80787 c 5.8919,-3.74919 6.0685,-4.05018 6.1482,-10.47283 0.057,-4.62772 1.2933,-13.7456 2.5772,-19.01498 0.2111,-0.86605 -0.031,-1.49171 -0.6726,-1.73792 -0.7501,-0.28781 -1.9684,1.24915 -4.8397,6.1056 -5.0983,8.62304 -5.2168,9.3975 -2.7474,17.9456 0.2599,0.89984 -0.077,1.12 -1.7132,1.12 -2.8605,0 -4.5125,-1.05088 -4.5125,-2.87034 0,-0.84992 1.0051,-5.6638 2.2336,-10.69747 2.4227,-9.92697 2.715,-13.06662 1.3856,-14.88467 -0.8347,-1.14163 -0.9225,-1.14067 -2.9069,0.0314 -2.613,1.54355 -5.4059,7.05664 -6.8398,13.50157 -1.6494,7.41395 -1.0424,18.13286 1.2978,22.91603 l 1.7412,3.55878 2.3442,-1.42688 c 1.2894,-0.78476 4.2163,-2.61811 6.5043,-4.07404 z m -41.97365,-2.2608 c 2.66949,-1.78547 4.85365,-3.44871 4.85365,-3.696 0,-0.75283 -9.70044,-0.79571 -13.28003,-0.0589 -3.60842,0.74291 -4.07964,1.52358 -2.24,3.71091 1.03324,1.22854 4.3908,3.27699 5.38638,3.28614 0.23451,0 2.61051,-1.45689 5.28,-3.2423 z m -3.91371,-12.23738 c 1.98199,-0.73453 1.85049,-1.29638 -0.35165,-1.50253 -5.78115,-0.54124 -15.20102,-0.95692 -15.20102,-0.67078 0,0.19174 0.7658,1.91008 1.70178,3.8185 l 1.70179,3.46988 5.17821,-2.22534 c 2.84802,-1.22394 5.98492,-2.52429 6.97089,-2.88973 z m -13.19732,-9.18022 3.67186,-1.62387 -2.69361,-2.46221 c -4.60326,-4.20781 -2.84632,-8.00243 2.4255,-5.23859 1.23249,0.64614 4.20881,2.22188 6.61405,3.50169 5.23506,2.78547 6.82685,2.96557 6.82685,0.77255 0,-2.35341 -1.27765,-3.21191 -8.03639,-5.39975 -6.69962,-2.1687 -8.92704,-2.41433 -11.4535,-1.26323 -1.58605,0.72269 -1.63011,0.91296 -1.63011,7.04 0,3.46349 0.13578,6.29728 0.30175,6.29728 0.16596,0 1.95408,-0.73075 3.9736,-1.62387 z m 681.80468,-34.52967 c 30,-2.89683 50.1454,-7.51276 72.0888,-16.51782 46.4819,-19.07514 87.85,-55.42111 106.4975,-93.56864 9.0767,-18.56843 15.3241,-42.75029 17.1959,-66.56 1.4741,-18.75191 1.4904,-20.8 0.1653,-20.8 -0.9685,0 -1.3329,0.7673 -1.8997,4 -0.3858,2.2 -1.4026,7.888 -2.2596,12.64 -0.857,4.752 -1.746,11.664 -1.9756,15.36 -0.6514,10.48829 -7.4751,37.69507 -13.0644,52.08938 -2.0783,5.35221 -6.2248,11.91062 -7.5304,11.91062 -1.3105,0 -1.18,-0.78712 1.9239,-11.60529 5.9906,-20.87904 9.92,-41.75347 12.1958,-64.78764 0.3614,-3.65808 0.334,-3.74378 -1.0834,-3.39061 -6.0916,1.51786 -11.3606,0.79354 -17.7389,-2.43858 -2.6516,-1.34372 -3.4473,-1.49379 -4.7568,-0.89718 -1.3584,0.61894 -1.5273,1.03248 -1.2404,3.03789 0.6298,4.40274 1.4592,6.84195 3.0681,9.0226 1.9978,2.70789 1.9966,2.9161 -0.03,5.57356 l -1.6441,2.15557 1.6441,1.95394 c 2.0436,2.42864 2.09,4.66111 0.145,6.97262 -1.2683,1.50721 -1.5636,2.76571 -1.9178,8.17024 -0.2303,3.51373 -0.8295,8.65756 -1.3317,11.43074 -0.5021,2.77317 -1.1053,7.01612 -1.3403,9.42876 -0.3945,4.05126 -0.749,4.85859 -4.6352,10.56 -5.7522,8.43862 -7.3497,10.44928 -13.2949,16.73338 -2.8306,2.992 -6.2258,7.06801 -7.5447,9.05779 -5.0102,7.55838 -11.1609,11.58434 -17.6588,11.55867 -6.2127,-0.0245 -10.5525,-2.67088 -16.7368,-10.20578 -2.1399,-2.60734 -5.2176,-5.65638 -6.8391,-6.77565 -4.9358,-3.40693 -7.0197,-5.45786 -8.4187,-8.2854 l -1.3376,-2.70357 -3.8942,-0.0693 c -3.56,-0.0633 -3.9445,0.0636 -4.4826,1.47864 -0.3236,0.85133 -0.5885,2.22856 -0.5885,3.0605 0,1.95057 -1.592,3.52405 -3.5657,3.52405 -1.9719,0 -1.9737,-0.43714 0.077,19.12585 1.4962,14.27173 1.5481,15.69004 0.6253,17.09841 -0.5534,0.84467 -1.4534,1.53574 -1.9998,1.53574 -1.1707,0 -7.8917,-3.84147 -15.8683,-9.06966 -3.1301,-2.05169 -6.3287,-3.73034 -7.1079,-3.73034 -0.7792,0 -2.6821,0.9655 -4.2287,2.14556 -5.9935,4.57302 -10.057,6.40224 -14.2669,6.4224 -8.0274,0.0385 -11.685,-3.7045 -12.6365,-12.93163 -1.333,-12.92677 -5.8967,-20.42835 -16.2286,-26.67547 l -3.84,-2.32183 -27.84,0.43213 c -40.9422,0.63552 -57.368,-0.91883 -102.08,-9.65969 -29.4962,-5.76627 -51.5495,-10.78178 -72.96,-16.59303 -27.8706,-7.56465 -92.4364,-28.39617 -129.92,-41.91743 -25.3266,-9.13591 -41.5073,-13.76344 -63.7748,-18.23903 -15.8157,-3.17883 -27.7141,-4.89431 -37.6652,-5.43047 -6.5177,-0.35116 -9.5691,-0.81543 -12.4221,-1.89001 -6.19,-2.33141 -12.819,-2.17233 -38.7779,0.9306 -28.4934,3.40587 -57.0211,13.67868 -74.0741,26.67402 -14.9234,11.37251 -24.2165,22.74961 -32.9457,40.33388 -5.3965,10.87076 -6.4926,11.43698 -6.1639,3.18398 0.2176,-5.46271 0.3409,-5.85145 4.519,-14.24 5.1334,-10.3064 10.5909,-17.76289 19.693,-26.90611 17.5811,-17.66063 39.0362,-29.14216 67.4329,-36.08627 16.9026,-4.13333 29.9422,-5.42383 51.9388,-5.14026 8.096,0.10436 17.456,-0.0678 20.8,-0.38251 26.1586,-2.46213 73.3323,-14.42119 107.2,-27.17644 17.4832,-6.58454 44.48,-19.04558 44.48,-20.53088 0,-0.47243 -2.5152,-1.62853 -5.92,-2.72116 -3.256,-1.04485 -10.096,-3.24299 -15.2,-4.88473 -5.104,-1.64175 -15.616,-4.97406 -23.36,-7.40514 -15.8833,-4.98624 -16.7444,-5.35219 -17.9019,-7.60785 -1.3693,-2.66832 -2.5625,-19.2064 -2.5181,-34.90263 0.034,-12.10472 0.2821,-16.02994 1.3948,-22.09298 3.0434,-16.58267 8.932,-30.27407 18.6686,-43.40588 2.1133,-2.85025 4.0148,-5.86903 4.2255,-6.70841 0.3516,-1.40109 0.1485,-1.55829 -2.4789,-1.91841 -1.574,-0.21575 -13.7627,-3.40643 -27.086,-7.09042 -13.3234,-3.68399 -27.1042,-7.27854 -30.6242,-7.98789 -22.2602,-4.48585 -42.2199,-5.31826 -71.04,-2.96269 -13.6978,1.11956 -14.0856,1.17291 -23.36,3.21288 -3.696,0.81296 -8.592,1.66392 -10.88,1.891 -5.4387,0.53981 -7.3997,1.76918 -10.88,6.82082 -10.6191,15.41353 -16.679,34.36476 -16.7564,52.40198 -0.078,18.22462 3.4833,31.61628 11.3341,42.61823 4.9133,6.88535 6.8319,7.3336 20.4699,4.7823 22.5026,-4.20966 39.146,-5.57805 60.1524,-4.9456 15.9238,0.47943 18.2243,0.81621 40.32,5.90272 29.2008,6.72213 30.3206,7.02463 32.0631,8.66166 l 1.5982,1.50143 -2.2083,0.76455 c -2.3896,0.8273 -8.3358,-0.0674 -19.5363,-2.93969 -31.4848,-8.074 -63.8132,-9.47922 -102.4767,-4.45439 -26.6266,3.46046 -33.3583,5.3114 -49.89,13.71766 -13.9976,7.11765 -25.7949,15.65677 -37.3905,27.06383 -22.1886,21.82809 -35.0884,45.03663 -40.4849,72.83853 -1.5649,8.06205 -1.7301,10.31737 -1.7767,24.24877 -0.057,17.02466 0.5502,22.2321 4.4316,38.01514 7.5096,30.53681 22.0078,55.96611 41.9105,73.5094 5.9374,5.23354 13.8406,11.03546 15.0322,11.03546 0.4133,0 1.1528,-0.792 1.6434,-1.76 2.1547,-4.25197 6.7759,-11.61882 9.1335,-14.56 13.1489,-16.4039 36.8569,-29.19785 61.5509,-33.21571 36.1131,-5.87585 86.6173,-0.0592 149.9026,17.26445 9.9452,2.7224 30.7662,9.72547 73.1374,24.59958 55.7059,19.55514 83.5732,27.4951 115.6119,32.94022 19.0851,3.24359 48.9072,6.58317 71.2681,7.9808 6.16,0.38503 12.64,0.80672 14.4,0.93709 7.5005,0.55578 43.5802,-0.2679 53.44,-1.21997 z m -8.49,-11.86534 c -5.7,-1.43149 -10.9559,-5.63002 -13.5501,-10.82426 -1.9823,-3.96896 -2.3978,-5.97862 -2.3458,-11.34425 0.1068,-11.00775 6.9299,-18.86381 16.5038,-19.00224 5.5316,-0.0799 9.2789,3.81888 9.3024,9.67853 0.015,3.76172 -0.7563,5.7502 -3.3968,8.75769 -3.9992,4.55475 -8.6972,5.79731 -14.8818,3.93607 -3.4525,-1.03904 -3.6623,-0.69037 -1.9912,3.30918 2.1032,5.03347 6.7956,8.0784 12.4495,8.0784 4.2917,0 7.5792,-1.59488 11.2904,-5.47744 5.8191,-6.08787 6.5463,-11.31827 2.6617,-19.14426 -1.2906,-2.60006 -2.2349,-4.83916 -2.0983,-4.97574 0.4112,-0.41114 5.6441,2.8761 7.1556,4.49504 4.3739,4.68474 4.9915,14.05888 1.4133,21.45037 -1.8033,3.72518 -6.4023,8.33702 -9.8226,9.84998 -3.3425,1.47853 -9.3471,2.05248 -12.6901,1.21293 z m 3.7921,-27.2567 c 4.3504,-4.0608 1.7443,-8.98752 -4.443,-8.3993 -3.5741,0.33978 -5.5669,1.92346 -7.5341,5.9872 -1.52,3.13978 -1.2127,4.2041 1.9925,6.90106 l 1.9865,1.67148 2.9301,-2.08243 c 1.6116,-1.14534 3.8921,-2.98041 5.068,-4.07801 z m -78.5368,12.66777 c -4.5323,-2.87955 -9.4911,-9.47699 -9.5513,-12.70713 -0.015,-0.80743 4.6932,1.56793 7.9888,4.0304 5.0039,3.73881 8.1147,3.28665 10.7544,-1.5634 3.1867,-5.85504 4.4149,-11.73683 4.634,-22.19206 0.3516,-16.78321 -0.971,-21.45722 -6.0628,-21.42594 -4.2411,0.026 -13.7601,5.63061 -14.4737,8.52179 -0.1879,0.76128 0.098,2.82415 0.6349,4.58415 1.2818,4.20032 1.2197,7.10733 -0.2186,10.24 l -1.1753,2.56 -1.0971,-3.69306 c -1.2172,-4.09747 -1.5578,-9.77346 -0.804,-13.39969 0.2712,-1.30502 1.6112,-3.78718 2.9777,-5.51593 4.2024,-5.31644 9.0172,-7.48482 14.9422,-6.7293 4.6621,0.59448 6.6855,2.35509 9.8124,8.53798 6.1171,12.09562 6.2238,21.57715 0.4321,38.4 -2.9026,8.43104 -3.3927,9.16435 -7.2283,10.81434 -4.4327,1.90688 -8.0653,1.76172 -11.5654,-0.46215 z m -166.0453,-26.96109 c -5.9593,-0.67174 -10.8345,-5.13196 -12.7836,-11.6955 -1.233,-4.1519 -1.2283,-7.27539 0.024,-15.70799 1.6539,-11.13864 5.4058,-21.47801 10.5879,-29.17779 5.4167,-8.04845 9.7152,-11.28982 14.9718,-11.28982 3.8368,0 7.3362,1.8369 12.04,6.32007 8.2048,7.81996 8.8721,14.15832 2.4834,23.58601 -5.0111,7.39475 -6.7828,12.27892 -7.8379,21.60769 -0.8668,7.66396 -1.7566,10.39471 -4.1751,12.81321 -2.8667,2.86668 -8.9099,4.2656 -15.3104,3.54412 z m 7.9818,-8.34137 c 1.9318,-1.03392 2.4925,-2.56725 3.1963,-8.74154 1.2208,-10.70878 4.5209,-19.79639 9.8475,-27.11664 1.748,-2.40226 2.9744,-4.78126 2.9744,-5.76988 0,-2.33792 -3.4438,-7.30052 -6.8948,-9.93553 -4.5497,-3.47398 -6.8163,-2.83799 -11.2034,3.14372 -7.3457,10.0154 -12.8688,25.44968 -14.2503,39.82252 -0.4976,5.17653 0.6024,8.34551 3.0801,8.87344 0.7856,0.16736 2.0044,0.44372 2.7084,0.61402 1.9668,0.4759 9.1176,-0.12787 10.5418,-0.89011 z m 76.8182,2.74054 c -4.2043,-2.12883 -8.5498,-7.23704 -9.9156,-11.65594 -0.4423,-1.43087 -0.2681,-1.37387 2.3451,0.76745 4.1557,3.40527 9.2109,5.56456 13.0448,5.57197 5.7135,0.0111 12.7322,-4.60572 15.4124,-10.13797 1.4216,-2.93458 1.8915,-10.07716 0.9174,-13.94581 -0.408,-1.62012 -0.621,-3.06647 -0.4733,-3.21412 0.6871,-0.68708 4.3793,3.4017 5.9254,6.56178 4.1771,8.53763 0.1338,20.08161 -8.7148,24.88183 -3.1019,1.68275 -4.2317,1.92262 -9.9014,2.1022 -5.1448,0.16301 -6.8394,-0.0198 -8.64,-0.93139 z m -413.779,-5.07205 c -3.3722,-4.42113 -4.8395,-9.64628 -10.9305,-38.92334 -2.2662,-10.89281 -4.5736,-21.54881 -5.1275,-23.68 -1.1517,-4.4309 -0.8948,-7.52485 1.0584,-12.74535 0.9313,-2.48903 1.6968,-3.60953 2.4661,-3.60953 0.9562,0 1.3767,1.71496 2.9426,12 1.0049,6.6 2.0001,12.50264 2.2115,13.11697 0.3264,0.94836 0.9717,0.64174 4.2752,-2.03122 8.0845,-6.54152 12.7141,-6.74203 20.0338,-0.86768 12.945,10.38888 20.3602,18.0239 25.1694,25.91565 3.1489,5.16729 3.3056,9.06761 0.5396,13.42923 -2.8899,4.55682 -10.4748,9.25491 -15.9978,9.90903 -5.1992,0.61577 -7.6448,-0.98007 -18.6963,-12.19997 -11.8761,-12.05724 -12.3629,-12.16254 -10.2242,-2.21198 4.4336,20.62785 5.0014,23.61402 4.5435,23.89696 -0.2763,0.17082 -1.2951,-0.72864 -2.2638,-1.99877 z m 28.2915,-19.27822 c 5.2356,-3.2515 6.2808,-4.08705 7.141,-5.70874 0.6398,-1.20625 0.4105,-1.80141 -1.7455,-4.52889 -1.3652,-1.72708 -7.483,-8.23697 -13.5951,-14.46643 -13.5155,-13.77495 -13.0777,-13.62098 -19.2148,-6.75758 -4.5077,5.04111 -5.2401,6.43403 -4.693,8.92512 0.3649,1.66146 20.8621,22.59336 23.6749,24.17695 2.2361,1.25898 4.4606,0.82625 8.4325,-1.64043 z m 389.0535,12.70667 c -1.0323,-0.40438 -0.3084,-1.12919 4.4297,-4.43502 6.4386,-4.49235 8.0043,-4.89936 8.0043,-2.08076 0,4.69764 -7.3042,8.52523 -12.434,6.51578 z m -7.9311,-5.623 c -1.1687,-0.57594 -2.8967,-2.05897 -3.84,-3.2956 -1.3987,-1.83389 -1.7149,-2.92449 -1.7149,-5.91527 0,-3.09204 0.3147,-4.10308 2.0081,-6.44982 2.4653,-3.41653 7.6286,-6.30298 11.2748,-6.30298 3.7488,0 7.7286,2.21708 9.4374,5.25739 4.0578,7.21995 -2.9771,17.80781 -11.8056,17.76804 -1.7791,-0.008 -4.191,-0.48581 -5.3598,-1.06176 z m 8.1726,-4.34689 c 2.1029,-1.08742 6.1554,-5.60813 6.62,-7.38474 0.3737,-1.42902 -4.7342,-5.75204 -6.7963,-5.75204 -2.1079,0 -6.6239,3.03338 -8.12,5.45411 -3.3158,5.36508 2.451,10.70538 8.2963,7.68267 z m -213.7275,0.58564 c -7.568,-1.89137 -16.64,-4.04225 -20.16,-4.77973 -3.52,-0.73749 -9.856,-2.18019 -14.08,-3.20601 -9.0355,-2.19432 -32.3119,-4.49356 -45.4122,-4.48581 -10.9622,0.006 -21.096,1.81302 -30.9265,5.51322 -6.4876,2.44189 -7.6533,1.84231 -3.6885,-1.89706 2.2873,-2.15714 12.7549,-6.6064 19.5593,-8.31372 8.9042,-2.23415 22.7508,-3.12558 35.3883,-2.27828 16.8247,1.12806 28.3257,3.82702 62.4773,14.66166 15.7945,5.01081 18.6023,6.13625 18.6023,7.45623 0,1.81143 -7.5182,0.88876 -21.76,-2.6705 z m 34.24,-17.67139 c -8.2905,-3.08372 -17.2387,-13.4709 -18.7895,-21.81103 -1.6255,-8.74193 4.442,-18.99527 13.8499,-23.40476 3.1197,-1.46218 4.5094,-1.71524 9.4196,-1.71524 4.7574,0 6.2931,0.26253 8.8231,1.5083 8.2976,4.08573 14.4583,13.1518 15.0341,22.12408 0.2776,4.32626 0.125,5.14335 -1.6818,9.00445 -2.4328,5.19872 -7.5039,10.34993 -12.684,12.88432 -4.133,2.02206 -10.5773,2.67237 -13.9714,1.40988 z m 10.9962,-10.82729 c 7.5586,-3.65904 10.7439,-13.38915 7.009,-21.4099 -5.5896,-12.0036 -23.7254,-11.09901 -28.9822,1.4456 -1.9911,4.75147 -0.4689,12.77578 3.1767,16.74526 3.9974,4.35262 13.1994,5.92853 18.7965,3.21904 z m -196.5962,-14.07294 c -1.76,-0.33242 -3.8651,-0.75511 -4.6779,-0.93929 -0.8128,-0.18419 -2.8039,-1.54912 -4.4246,-3.0332 -6.6221,-6.06361 -10.9573,-15.80614 -10.112,-22.72491 0.9557,-7.82286 6.2633,-15.14779 13.5952,-18.76264 2.4811,-1.22323 4.0874,-1.50975 8.4993,-1.51608 4.6358,-0.007 5.9603,0.24901 8.96,1.72964 5.9239,2.92402 12.9472,10.44858 15.3967,16.49568 1.4683,3.62469 1.1398,9.84632 -0.8513,16.12418 -1.5798,4.981 -2.0488,5.76719 -4.4751,7.50116 -8.2025,5.86203 -7.3159,5.48571 -13.222,5.61227 -3.0186,0.0647 -6.9283,-0.15438 -8.6883,-0.48681 z m 7.7651,-9.86033 c 6.4488,-1.9151 10.4749,-7.42165 10.4749,-14.32674 0,-5.16313 -0.9482,-8.34948 -3.3525,-11.2663 -2.933,-3.55833 -6.4012,-5.05977 -11.6875,-5.05977 -5.2817,0 -8.5814,1.4287 -11.8207,5.11809 -2.8724,3.27146 -4.0012,6.26842 -4.0695,10.80425 -0.065,4.30022 1.0483,7.01782 4.2818,10.45461 4.4451,4.72455 9.8505,6.15359 16.1735,4.27586 z m 59.423,9.70451 c -1.0626,-0.48875 -2.8986,-1.98962 -4.0801,-3.33527 -2.1189,-2.41329 -4.2623,-6.5588 -3.688,-7.13304 0.1622,-0.16224 2.6666,0.0518 5.5653,0.47564 6.8494,1.00152 17.4277,0.43402 23.9747,-1.28617 9.7323,-2.55714 22.2,-9.72258 26.3234,-15.12863 3.7959,-4.97672 1.7516,-10.41278 -4.8323,-12.8497 -1.6121,-0.5967 -2.9695,-1.10582 -3.0164,-1.13136 -0.047,-0.0255 -0.2857,-0.98245 -0.5308,-2.12645 -0.5305,-2.47593 -0.2845,-2.51871 4.4011,-0.7656 9.2814,3.47263 16.2502,15.15987 12.9011,21.6363 -1.4464,2.79706 -9.4392,9.95911 -14.41,12.91217 -2.4984,1.48431 -6.9815,3.5394 -9.9623,4.56685 -11.0331,3.80292 -28.5693,6.04037 -32.6457,4.16526 z m 7.8032,-15.55312 c -2.4598,-0.75574 -3.5437,-0.79884 -5.3229,-0.21164 -1.2288,0.40554 -2.3927,0.57888 -2.5864,0.38518 -0.7998,-0.79983 -0.9533,-6.28179 -0.225,-8.03989 0.4487,-1.08341 1.7112,-2.32707 2.9672,-2.92307 2.3244,-1.10303 2.321,-1.21039 -0.1476,-4.65247 -0.999,-1.39297 -0.9619,-1.46967 1.1369,-2.34661 1.1934,-0.49861 4.754,-1.53128 7.9125,-2.29482 3.1585,-0.76354 8.7693,-2.40315 12.4684,-3.64356 5.7286,-1.92098 7.3238,-2.20796 10.7614,-1.93596 2.2197,0.17564 4.1984,0.48193 4.3972,0.68065 0.7409,0.74094 -3.6475,5.34424 -6.626,6.95036 -1.6979,0.91558 -7.6655,3.287 -13.2614,5.26982 -5.5958,1.98281 -10.9765,4.28009 -11.9569,5.10506 l -1.7826,1.49994 2.1486,1.1571 c 1.9241,1.03619 2.5927,1.07528 6.3983,0.37406 10.2813,-1.8944 15.8969,-4.43365 24.7013,-11.16946 3.5162,-2.69003 4.0923,-2.93942 4.6186,-1.99911 1.0883,1.94468 -0.6234,5.73913 -3.8857,8.61373 -3.9639,3.49285 -10.4213,7.29911 -15.1336,8.92037 -4.5234,1.55629 -11.9831,1.6734 -16.5823,0.26032 z M 168.13941,484.106 c -9.0019,-3.11066 -14.6988,-12.92145 -11.3093,-19.476 2.7279,-5.2751 14.9291,-17.96434 21.5944,-22.45812 3.1244,-2.1065 4.6861,-2.10969 7.8214,-0.0159 6.5543,4.37701 10.3661,9.6884 10.9394,15.2431 0.3073,2.97752 0.098,4.06969 -1.3472,7.02327 -3.513,7.18018 -18.5425,20.90793 -22.8276,20.85037 -0.8554,-0.0115 -3.0475,-0.5365 -4.8711,-1.16669 z m 1.6785,-10.97242 c 0.618,0 12.8679,-13.70236 13.9346,-15.58674 1.1898,-2.10205 1.02,-2.33326 -1.7139,-2.33326 -2.3885,0 -2.823,0.32698 -7.4414,5.6 -7.5478,8.61756 -8.0605,9.38513 -7.5711,11.33527 0.2864,1.14096 0.7343,1.58314 1.3604,1.3429 0.5133,-0.19699 1.1575,-0.35817 1.4314,-0.35817 z m 110.7965,-9.0495 c -2.1705,-0.51465 -3.77,-1.60304 -6.7782,-4.61205 -3.6075,-3.60845 -6.1841,-8.18872 -5.1745,-9.19829 0.2057,-0.20574 2.0344,0.64005 4.0638,1.87955 4.7437,2.89739 7.5992,3.79172 12.1065,3.79172 8.0342,0 14.6374,-6.26033 15.393,-14.59374 0.2765,-3.0497 0.01,-4.68482 -1.4239,-8.72294 -0.9704,-2.73333 -1.5819,-5.15209 -1.359,-5.37502 0.7256,-0.72558 6.638,3.81131 8.2929,6.36355 2.0544,3.16838 2.6487,7.51599 1.7243,12.61371 -2.0805,11.4735 -8.7253,17.73205 -19.4171,18.28842 -2.5228,0.13129 -5.8654,-0.0644 -7.4278,-0.43491 z m -52.1992,-83.96814 c -1.408,-0.46598 -3.4965,-1.33527 -4.6411,-1.93177 -3.5957,-1.8739 -9.397,-8.15223 -11.5621,-12.51281 -6.952,-14.00147 4.0478,-30.40131 20.391,-30.40131 5.4164,0 10.4512,2.34965 15.2022,7.09449 4.9726,4.96615 6.8161,9.37189 6.7826,16.20904 -0.032,6.56261 -1.2374,9.67091 -5.6376,14.54044 -5.4423,6.02279 -14.3333,9.05439 -20.535,7.00192 z m 9.6175,-9.11094 c 3.0534,-1.2758 5.8631,-3.86456 7.835,-7.21888 1.4618,-2.48666 1.7444,-3.70483 1.7285,-7.45254 -0.029,-6.93956 -3.0989,-11.87879 -9.0108,-14.50002 -8.9003,-3.94624 -19.6194,0.90634 -22.3983,10.13977 -1.2653,4.20435 -1.1014,7.08362 0.6129,10.76491 3.7593,8.07278 13.0447,11.68795 21.2327,8.26676 z m 72.9042,5.55558 c -2.4223,-1.0958 -6.1119,-4.94279 -6.7945,-7.08416 -0.1842,-0.57799 0.4547,-1.31383 1.667,-1.92 1.1098,-0.55486 2.051,-1.58089 2.1615,-2.35624 0.1573,-1.10271 -0.3588,-1.58523 -2.6185,-2.44819 -5.8727,-2.24282 -8.1737,-5.96818 -10.4417,-16.90503 -2.2629,-10.91257 -1.9629,-14.39065 1.5126,-17.53593 1.2194,-1.10357 1.2805,-1.08333 1.9348,0.64151 0.3717,0.97958 0.8507,4.41578 1.0645,7.63602 0.467,7.03315 1.6505,11.86623 4.3365,17.70907 1.8113,3.94025 4.2269,6.83595 5.7024,6.83595 1.1402,0 0.47,-4.69193 -2.3263,-16.28497 -3.5097,-14.55038 -3.5613,-15.66801 -0.8291,-17.96698 1.7582,-1.47944 2.4851,-1.68402 5.093,-1.43344 6.3554,0.61068 10.2113,5.52389 12.0955,15.4124 0.6819,3.5784 2.0207,8.81171 2.9753,11.62959 2.135,6.30299 2.2416,11.65264 0.3076,15.44362 -2.1679,4.24933 -6.8033,7.90129 -11.9623,9.42433 -0.704,0.20783 -2.4493,-0.15106 -3.8783,-0.79755 z m 5.2621,-9.83596 c 3.1406,-2.13967 5.3362,-5.99268 5.3362,-9.36468 0,-3.42758 -5.9444,-22.58704 -7.8296,-25.23566 -2.9873,-4.19702 -2.9162,1.25356 0.2185,16.75975 1.6087,7.95715 1.5271,11.72699 -0.3524,16.29819 -1.6937,4.11893 -1.4041,4.2889 2.6273,1.5424 z m -123.3037,-13.69771 c 1e-4,-0.64533 0.5676,-4.62933 1.2613,-8.85333 2.4702,-15.04315 5.4492,-23.37819 10.5853,-29.61694 2.4989,-3.03534 2.8733,-3.88081 2.8733,-6.48858 0,-1.64917 0.3456,-3.34408 0.768,-3.76648 0.8268,-0.82687 3.3616,-0.9473 5.1151,-0.24301 1.0881,0.43701 0.3046,2.48929 -17.6188,46.14862 -1.4429,3.51487 -2.9844,4.97141 -2.9842,2.81972 z m 571.7008,277.79779 c -0.077,-0.66611 -0.1694,-4.4069 -0.2065,-8.31285 -0.069,-7.27917 1.0592,-15.70498 3.3339,-24.89827 0.6968,-2.816 1.4778,-8.04383 1.7356,-11.6174 0.4115,-5.70504 0.6828,-6.77821 2.2249,-8.8 1.8776,-2.46159 4.0388,-2.96639 6.941,-1.6212 2.3543,1.09116 8.65,9.9745 11.9905,16.9186 1.6934,3.52 4.4671,8.24216 6.1639,10.4937 4.1472,5.50295 14.8193,16.00827 17.3752,17.10368 6.0786,2.60512 10.7661,-0.10556 18.8617,-10.90729 6.1871,-8.25539 7.2618,-11.30069 6.2261,-17.64165 -0.8797,-5.38551 -0.036,-7.10562 5.1888,-10.57906 8.2425,-5.47968 11.6327,-10.71956 14.0717,-21.74938 2.1283,-9.62484 2.4025,-20.30685 0.7036,-27.41053 -1.7453,-7.29789 -1.7416,-11.77314 0.013,-15.50559 l 1.3642,-2.90217 -1.5242,-1.72275 c -0.8382,-0.94751 -3.3148,-3.66587 -5.5033,-6.0408 -3.0362,-3.29468 -4.2224,-5.1547 -5.0055,-7.84823 l -1.0262,-3.53017 -6.6337,-3.23174 c -5.5623,-2.70978 -14.1253,-5.41749 -14.9395,-4.72403 -0.531,0.45225 0.7172,1.55601 1.7596,1.55601 2.4447,0 8.9966,3.94913 11.472,6.91468 5.2676,6.31075 11.2292,21.02076 13.2789,32.76532 1.3679,7.83829 0.9445,19.8708 -0.957,27.2 -5.2933,20.40133 -19.0413,28.52185 -38.0615,22.4818 -6.6285,-2.10494 -12.3621,-5.47551 -19.4464,-11.43184 -5.4492,-4.58159 -6.2055,-5.02357 -7.4533,-4.35579 -0.7638,0.40876 -1.7187,1.27172 -2.1222,1.91768 -0.6523,1.04459 -0.433,1.25012 1.9826,1.85838 4.9497,1.24635 12.5714,7.5328 12.5714,10.36901 0,2.24945 -2.2832,5.0921 -4.0465,5.03804 -1.5667,-0.0481 -12.4444,-7.35427 -13.4901,-9.061 -0.6515,-1.06318 -0.5363,-1.62348 1.1667,-5.67314 0.3555,-0.84521 -0.3605,-0.75152 -4.2413,0.55505 -6.9067,2.32536 -12.706,1.82859 -19.5879,-1.67793 l -5.0753,-2.58601 -1.0205,4.13504 c -1.6702,6.76823 -8.7165,15.42487 -17.1748,21.09976 -14.1346,9.48326 -26.3687,9.39203 -35.1923,-0.26245 -12.5008,-13.67786 -17.4699,-30.25956 -15.8258,-52.80979 0.711,-9.7526 1.7227,-14.28793 4.3321,-19.4206 2.377,-4.67567 5.2848,-7.64292 9.3557,-9.54697 2.626,-1.22829 4.2617,-1.49785 9.12,-1.50299 3.256,-0.003 5.92,-0.26144 5.92,-0.57333 0,-1.40072 -4.8977,-2.93022 -9.28,-2.89806 -10.2317,0.0751 -17.299,7.66133 -21.5926,23.17812 -1.7959,6.48999 -1.7821,21.39402 0.035,37.16336 1.1778,10.22525 1.2004,11.33215 0.2825,13.80876 -0.9845,2.65641 -0.9706,2.74348 1.0363,6.50891 3.5378,6.63769 6.1952,8.84196 11.9394,9.90383 4.3162,0.7979 9.6364,3.31871 13.9445,6.60718 2.0663,1.5772 4.3613,2.59029 7.4692,3.29717 4.9343,1.12228 5.1823,1.49778 3.4294,5.19179 -1.0547,2.22246 -1.0525,2.23192 0.9501,4.23458 1.2487,1.24868 2.2213,1.77366 2.5739,1.38928 0.3116,-0.33981 1.8103,-3.06584 3.3303,-6.05784 4.5778,-9.01108 6.6489,-11.82858 16.1473,-21.96586 5.006,-5.34278 9.6819,-10.4604 10.3907,-11.3725 2.8157,-3.62268 6.7317,-4.24649 7.9651,-1.26882 0.9749,2.35358 0.5803,3.65023 -2.982,9.79741 -2.8746,4.9605 -7.6381,9.91956 -11.3583,11.82464 -3.3726,1.727 -3.2051,2.39629 0.687,2.74513 l 3.5702,0.32 -7.1112,5.33958 c -8.3627,6.27935 -12.4114,10.66155 -14.1584,15.32443 -0.6972,1.8612 -1.2677,3.6612 -1.2677,4 0,1.29453 1.7177,0.47586 4.8,-2.28776 6.1113,-5.47942 11.2236,-7.0593 17.1232,-5.29172 3.6379,1.08993 4.0577,0.22437 4.481,-9.2392 0.4468,-9.98758 1.3102,-13.37021 4.1791,-16.37307 l 2.2473,-2.35226 0.943,2.24 c 1.2466,2.96102 0.7289,22.96694 -0.6817,26.34294 -1.8466,4.41941 -6.5239,6.92635 -12.9362,6.93349 -4.3546,0.005 -6.7866,0.79284 -11.8048,3.82488 -5.2176,3.15255 -8.2498,3.39475 -11.8567,0.94706 -1.3223,-0.8974 -2.5491,-1.48683 -2.7261,-1.30984 -0.7502,0.75019 0.6831,5.13089 2.1629,6.61072 2.2541,2.25411 5.412,1.70173 11.319,-1.97994 5.3478,-3.33316 9.4177,-4.62668 12.6496,-4.02037 1.2376,0.23216 4.9704,2.14419 8.2952,4.24897 3.3248,2.10477 6.3332,3.72729 6.6852,3.6056 0.352,-0.1217 0.5774,-0.76627 0.5009,-1.43239 z m 49.3483,-16.63256 c -5.2364,-3.49497 -9.4345,-9.54518 -12.9519,-18.66609 -2.0603,-5.34265 -2.4996,-8.09884 -1.3993,-8.7789 0.3399,-0.21009 1.7685,0.20491 3.1745,0.92223 1.4061,0.71731 2.856,1.3042 3.222,1.3042 1.2065,0 0.6939,-1.67035 -0.9968,-3.24844 -0.9142,-0.85336 -2.2004,-2.60071 -2.8581,-3.88301 l -1.1957,-2.33145 2.0128,-0.83375 c 1.8018,-0.74629 2.5548,-0.64496 7.1781,0.96584 14.2073,4.94999 18.2032,6.79165 20.4624,9.43089 5.0925,5.9495 4.3197,14.73852 -1.9015,21.62461 -4.7592,5.26788 -10.1683,6.54946 -14.7465,3.49387 z m 9.1289,-8.41979 c 2.8498,-4.29081 3.4219,-5.57773 3.4219,-7.6975 0,-2.26951 -1.1237,-3.29825 -5.9973,-5.49088 -4.5155,-2.03143 -11.6801,-2.42729 -12.3497,-0.68234 -0.7094,1.84853 1.0321,5.81923 4.9968,11.3929 3.4929,4.91063 4.1454,5.51892 5.918,5.51782 1.6659,-0.001 2.3227,-0.49892 4.0103,-3.04 z m -99.6262,-23.19279 c 2.4647,-1.82714 6.7868,-5.7863 9.6047,-8.79811 4.2539,-4.54664 5.1234,-5.8329 5.1234,-7.57881 0,-2.37636 -0.2749,-2.52197 -6.0395,-3.19971 l -3.7996,-0.4467 2.0496,-1.83132 c 3.771,-3.36939 8.1164,-2.05875 12.794,3.85892 2.668,3.3753 3.3155,3.50992 3.3155,0.68939 0,-2.465 -1.923,-4.58554 -6.1993,-6.83593 -7.8837,-4.14888 -18.8924,-5.17527 -29.3514,-2.73657 -7.3716,1.71886 -7.9693,2.08633 -7.9693,4.89981 0,2.83868 2.7529,5.67392 8.0034,8.24273 1.9477,0.95296 3.6903,1.97363 3.8723,2.26814 0.4876,0.78892 -1.9935,3.04696 -3.8636,3.51634 -2.93,0.73538 -6.0391,-0.32118 -8.6613,-2.9433 -5.1566,-5.15661 -6.3584,-10.20006 -3.5069,-14.71711 2.2643,-3.58683 4.6686,-4.98389 21.5358,-12.5137 10.4233,-4.65311 15.4657,-7.24717 16.6781,-8.5801 1.64,-1.80289 4.0472,-8.26495 3.5899,-9.63677 -0.3341,-1.00229 -10.9418,-8.27112 -11.5352,-7.90439 -0.2944,0.1819 0.899,1.93979 2.6518,3.90643 1.7529,1.96665 3.0511,3.7957 2.8849,4.06458 -0.1662,0.26888 -2.8271,-0.60627 -5.9131,-1.94475 -7.6145,-3.30259 -17.7938,-6.50166 -20.8209,-6.54344 -3.3924,-0.0468 -5.018,1.67413 -5.3511,5.66498 -0.4322,5.1776 0.9239,6.64731 6.9959,7.58197 2.9936,0.46082 3.0274,1.05518 0.1383,2.43291 -4.9701,2.37007 -10.0752,0.639 -12.918,-4.38039 -2.6608,-4.69783 -1.8102,-9.14242 2.851,-14.89616 2.4983,-3.08395 2.4193,-3.85858 -0.2628,-2.57734 -2.2874,1.09266 -5.6748,6.11032 -6.8919,10.20853 -1.4626,4.92525 -2.4336,15.678 -1.958,21.68389 0.5357,6.76542 2.5361,18.77127 3.9287,23.5785 3.9356,13.58579 13.4307,22.11241 21.828,19.60151 1.4934,-0.44656 4.7319,-2.30687 7.1966,-4.13403 z m -101.7519,0.91195 c 0,-1.30741 -2.5152,-3.82554 -12.0027,-12.01664 -13.1333,-11.3388 -15.1672,-13.42249 -22.6827,-23.23877 -3.2751,-4.27762 -11.7146,-15.03909 -18.7546,-23.91438 -17.5073,-22.07127 -21.4928,-27.38962 -26.3699,-35.18814 -5.0807,-8.1241 -7.8369,-11.96109 -11.9418,-16.62475 -2.1475,-2.43979 -4.6945,-6.80743 -8.2195,-14.09525 -14.2818,-29.52674 -19.0018,-38.53972 -24.3827,-46.56 -7.8008,-11.6269 -6.4999,-11.76359 -22.2061,2.33342 -22.1344,19.86654 -47.0709,35.01041 -82.814,50.29267 -26.4759,11.32002 -39.4148,15.91278 -60.546,21.49135 -7.92,2.09086 -16.848,4.54149 -19.84,5.44585 -7.0003,2.11591 -14.0158,3.47671 -17.924,3.47671 -1.7002,0 -3.5469,0.17481 -4.1037,0.38847 -1.9047,0.7309 -1.0142,1.53153 1.7077,1.53531 15.1548,0.021 56.5273,11.66204 114.5241,32.22378 48.4541,17.17853 102.4036,32.70616 148.9959,42.88363 41.2175,9.00344 66.56,13.40743 66.56,11.56674 z m -147.52,-72.56912 c -11.1398,-1.83216 -22.1244,-10.43634 -27.8169,-21.78881 -3.1663,-6.31467 -4.1142,-10.1153 -4.1499,-16.64 -0.042,-7.59081 1.7449,-13.51863 6.0515,-20.08045 8.8229,-13.44326 24.1623,-20.40936 38.3953,-17.4365 13.7331,2.86846 25.2028,13.14189 29.8566,26.7426 1.3167,3.84791 1.6056,5.90603 1.6024,11.41435 -0.01,11.86005 -3.1846,19.87432 -10.918,27.53599 -5.1362,5.08863 -9.3729,7.57844 -15.6996,9.22632 -4.5795,1.19283 -13.203,1.70387 -17.3214,1.0265 z m 7.2182,-14.77056 c 8.6771,-1.40812 16.1117,-6.79838 19.9418,-14.45835 3.9624,-7.92472 3.4067,-18.51184 -1.3652,-26.00986 -3.59,-5.64088 -10.5307,-10.66256 -14.7835,-10.69598 -1.7432,-0.0137 -1.7006,0.0718 1.6778,3.37019 4.4027,4.29838 6.161,7.76678 6.7548,13.3239 0.402,3.76235 0.7739,4.73059 2.5017,6.51318 2.6387,2.72245 3.0849,5.18758 1.7626,9.73636 -1.3282,4.56866 -5.4281,8.89343 -10.9222,11.52103 -3.0271,1.44778 -4.9754,1.88821 -9.3304,2.10928 -6.5559,0.33281 -7.9019,-0.22206 -9.4923,-3.91302 -0.7051,-1.63621 -2.6903,-4.00844 -5.1123,-6.10881 -3.885,-3.36905 -7.8592,-8.18976 -9.7753,-11.85754 -1.2542,-2.4006 -1.892,-1.37548 -1.9322,3.10562 -0.044,4.90054 2.8785,10.87474 7.6383,15.61406 4.0773,4.05978 8.2607,6.37592 13.6182,7.53975 4.5156,0.98096 4.1258,0.97167 8.8182,0.21019 z m 1.3991,-9.25026 c 1.4841,-0.5236 3.7532,-1.78752 5.0425,-2.8087 2.3191,-1.83668 5.8314,-7.11929 4.7336,-7.11929 -0.4538,0 -8.0044,4.74902 -15.9667,10.04236 -0.9961,0.66225 -0.8421,0.76731 1.1728,0.8 1.2757,0.0207 3.5338,-0.39076 5.0178,-0.91437 z m -2.2611,-10.91012 c 1.2958,-0.6149 3.1318,-2.13592 4.0799,-3.38004 1.6081,-2.11009 1.7239,-2.69515 1.7239,-8.70993 0,-5.3515 -0.2236,-6.82842 -1.3146,-8.68572 -1.7714,-3.01544 -4.5464,-4.76498 -9.0857,-5.72828 -3.4947,-0.74162 -4.0345,-0.69453 -7.0859,0.61817 -3.5988,1.54812 -7.4006,5.29051 -8.816,8.67806 -2.746,6.57207 1.368,15.28844 8.462,17.92864 3.0848,1.14808 8.8219,0.80447 12.0364,-0.7209 z m 153.2679,97.8974 c 1.6769,-5.67919 -0.8622,-14.08936 -5.9741,-19.78827 -1.2595,-1.40416 -2.29,-3.02443 -2.29,-3.60061 0,-0.57617 -3.5265,-3.89132 -7.8367,-7.36699 -14.4786,-11.67546 -25.8584,-22.23811 -37.4362,-34.74818 -13.099,-14.15379 -22.022,-26.12381 -35.3423,-47.41122 -11.4749,-18.33831 -14.4405,-23.6832 -18.8204,-33.92 -2.0331,-4.752 -4.3962,-9.71431 -5.2512,-11.02736 -1.3685,-2.10142 -5.5377,-4.97264 -7.2207,-4.97264 -0.3292,0 -0.1317,1.8 0.4388,4 1.1611,4.47681 20.4614,43.6756 27.6515,56.16 10.6651,18.51817 23.6288,37.13009 36.3308,52.16 9.1736,10.85486 38.5387,41.19919 44.4088,45.88968 3.0593,2.44455 5.6513,4.66669 5.76,4.93809 0.1753,0.43791 3.4975,2.3687 4.3778,2.54434 0.1872,0.0373 0.7289,-1.24824 1.2039,-2.85684 z m 43.9727,-3.31527 c -2.9936,-10.17844 -3.9188,-17.25291 -3.8709,-29.6 0.043,-11.00441 0.1696,-12.24482 1.7967,-17.57617 3.2472,-10.63943 7.6834,-17.45868 14.1503,-21.75113 6.9011,-4.58067 14.7909,-6.26816 21.3957,-4.5761 8.895,2.27879 22.8276,9.51479 32.5056,16.88196 3.1044,2.36321 5.8644,3.98144 6.7906,3.98144 0.8583,0 3.1073,-0.70665 4.9979,-1.57034 5.1591,-2.35696 11.8382,-3.27581 17.4593,-2.40192 2.5362,0.3943 5.2523,0.5493 6.0358,0.34443 0.7833,-0.20486 3.4479,-2.85641 5.9212,-5.89232 11.1723,-13.71355 21.3981,-22.24425 31.6313,-26.38759 4.2762,-1.7314 5.9576,-2.07207 10.3081,-2.08856 4.6204,-0.0175 5.6805,0.21763 9.5335,2.11443 2.3843,1.17377 5.4576,3.14832 6.8297,4.38788 1.7888,1.61603 2.6905,2.05785 3.1869,1.56143 0.8882,-0.8882 6.3438,-20.10729 8.6149,-30.34901 1.5847,-7.14578 1.7513,-9.12828 1.7918,-21.31843 0.051,-15.18563 -0.4881,-18.76989 -4.8306,-32.14129 -3.3574,-10.33802 -6.7818,-17.0433 -10.6103,-20.7761 -3.5054,-3.41763 -21.2293,-14.30479 -22.0105,-13.52017 -0.2834,0.28466 -1.7126,3.39756 -3.176,6.91756 -6.2777,15.10035 -15.5703,31.52538 -24.2597,42.88 -5.9423,7.76502 -8.0317,11.13481 -9.6301,15.53235 -1.3205,3.63262 -2.1617,4.66562 -8.8883,10.91515 -11.2593,10.46076 -21.0659,18.75807 -26.5202,22.43856 -2.7003,1.82212 -4.9095,3.56344 -4.9095,3.86961 0,0.30617 1.4894,0.91398 3.3099,1.3507 6.8735,1.64892 22.6604,-0.54913 28.8655,-4.019 3.6941,-2.06576 4.0553,-2.91045 3.0455,-7.12021 -1.3971,-5.82365 -0.3057,-7.73472 10.7659,-18.85207 5.1552,-5.17647 10.5906,-10.23464 12.0786,-11.2404 5.0988,-3.44628 10.8793,-2.91851 15.0631,1.37529 2.8903,2.96628 8.5794,12.34569 9.4505,15.58088 0.7824,2.90566 0.2228,7.08719 -1.3753,10.27669 -1.5312,3.05604 -17.4745,17.8497 -21.159,19.63334 -5.0134,2.42696 -9.6684,1.56059 -14.9739,-2.78693 -4.5704,-3.74505 -5.202,-3.7933 -11.2585,-0.85992 -7.0912,3.4345 -10.0752,4.40796 -16.3987,5.34956 -7.5014,1.11702 -14.5445,0.33177 -18.8933,-2.10645 -2.8275,-1.5853 -3.5104,-2.3558 -4.6003,-5.19086 -1.5365,-3.99642 -1.0445,-4.02845 -11.5476,0.75152 -14.432,6.56789 -31.1533,11.74312 -47.9724,14.84734 -16.1401,2.9789 -25.6441,3.78049 -44.8,3.77852 -19.1863,-0.002 -31.7593,-0.9694 -48.127,-3.70312 -4.8582,-0.8114 -8.9457,-1.38029 -9.0834,-1.26419 -0.327,0.27567 4.5495,6.72936 8.1633,10.80364 1.5612,1.76 6.6114,7.05884 11.2227,11.7752 25.7183,26.30382 60.6382,52.61837 78.7844,59.36947 4.7414,1.76401 5.624,1.82775 5.1968,0.37533 z m 152.0546,-1.15474 c 4.3964,-1.49801 7.8274,-4.81511 10.4259,-10.07983 1.8965,-3.84214 2.4529,-5.98435 3.3572,-12.92543 0.5962,-4.576 1.0737,-11.344 1.061,-15.04 -0.022,-6.339 -0.2069,-7.2721 -3.2672,-16.45786 -2.5257,-7.58071 -3.9055,-10.66439 -6.229,-13.92045 -4.5326,-6.35183 -7.4725,-7.44242 -13.955,-5.17672 -8.6088,3.00882 -14.5218,7.76942 -23.304,18.76181 -5.5954,7.00366 -6.1493,8.69363 -3.7744,11.51606 1.8744,2.22764 4.0872,2.83566 14.4341,3.96618 3.344,0.36538 8.496,0.92845 11.4491,1.25128 4.4361,0.48497 5.65,0.86791 6.986,2.20391 l 1.6169,1.61694 -1.7386,2.27943 c -1.2881,1.68884 -2.2194,2.27942 -3.5945,2.27942 -2.928,0 -8.3407,1.31525 -11.9362,2.9004 -4.3226,1.90574 -13.5955,7.7399 -15.4227,9.70353 -2.2907,2.46162 -1.9406,5.45876 0.976,8.35607 3.4945,3.4714 8.8948,6.99695 12.944,8.45035 4.539,1.62926 15.602,1.8037 19.9714,0.31491 z m -6.3823,-12.84687 c 1.854,-2.33288 4.5229,-5.73968 5.9309,-7.57066 1.408,-1.83097 4,-5.14736 5.76,-7.36975 l 3.2,-4.0407 0.1991,3.07038 c 0.4295,6.62386 -7.3047,16.95375 -14.5346,19.41249 -3.9058,1.32828 -3.987,0.81643 -0.5554,-3.50176 z m 11.1314,-33.70711 c 0.4742,-6.16839 -0.4044,-8.65193 -3.7916,-10.71719 -2.5966,-1.58324 -9.1487,-1.67666 -16.1432,-0.23017 -4.1308,0.85426 -5.0419,0.88077 -5.4986,0.16 -0.8978,-1.41664 -0.7377,-1.58076 3.5316,-3.62009 8.1537,-3.8948 15.0924,-4.99417 18.9454,-3.00172 3.8461,1.98892 8.7022,10.61849 7.9864,14.19237 -0.1284,0.64104 -0.3947,1.93533 -0.5918,2.8762 -0.38,1.81407 -3.2716,5.64932 -4.2593,5.64932 -0.3415,0 -0.4162,-2.22014 -0.1789,-5.30872 z m -33.6805,2.97801 c -2.4461,-0.44155 -5.12,-1.60009 -5.12,-2.21835 0,-0.92796 4.4823,-2.49094 7.1436,-2.49094 3.7187,0 9.5412,3.19465 7.353,4.03435 -1.398,0.53649 -7.6505,0.98654 -9.3766,0.67494 z m -24.96,34.81313 c 7.2188,-2.18798 12.7669,-9.20646 12.7761,-16.16242 0.01,-5.26257 -0.459,-5.31356 -6.0535,-0.66241 -2.7608,2.29533 -6.2138,4.75136 -7.6732,5.45787 -6.3392,3.06871 -14.7463,0.31858 -17.9866,-5.88368 -1.5123,-2.89488 -1.1227,-7.40485 1.0335,-11.96265 1.0644,-2.24997 1.8293,-4.19683 1.6998,-4.32633 -0.1295,-0.12951 -1.546,0.76519 -3.1478,1.98822 -4.1785,3.19057 -5.9293,7.07604 -5.9248,13.14898 0.01,5.68812 1.5266,9.37959 5.5117,13.3647 5.4724,5.47239 12.457,7.25263 19.7648,5.03772 z m -0.2107,-18.80223 c 7.9682,-4.55977 9.8107,-6.24075 9.8107,-8.95083 0,-3.89687 -5.6917,-8.56936 -10.4385,-8.56936 -3.8349,0 -10.8827,6.2899 -11.6539,10.40072 -0.2175,1.15945 -0.3037,3.39031 -0.1915,4.95747 0.1841,2.57313 0.4521,2.98954 2.7639,4.29507 1.408,0.79512 2.7532,1.45042 2.9893,1.45621 0.2361,0.006 3.2601,-1.60939 6.72,-3.58928 z m 108.2656,-28.52727 c 9.1035,-2.76497 12.7471,-16.73791 6.379,-24.46347 -2.9861,-3.62266 -6.4284,-5.13113 -11.7139,-5.13312 -9.4173,-0.004 -15.4555,5.2507 -16.163,14.06439 -0.2494,3.10627 -0.027,4.56678 1.0686,7.04554 1.7115,3.86909 2.8017,5.09452 6.4175,7.21351 4.3293,2.53713 8.5788,2.92326 14.0118,1.27315 z m 14.0521,-24.56221 c 0.2738,-2.73932 -3.2707,-19.87411 -5.9475,-28.75071 -6.0646,-20.1113 -15.1612,-38.09099 -26.8852,-53.13926 -6.1,-7.82958 -6.3591,-7.79749 -3.5601,0.44087 1.3564,3.99211 2.6725,7.76258 2.9246,8.3788 0.2521,0.61622 1.6775,1.65964 3.1674,2.31869 3.5201,1.55713 4.3611,3.01872 10.1741,17.6809 4.7878,12.07662 8.5706,23.13647 15.1623,44.33009 3.2938,10.59022 4.5571,12.81449 4.9644,8.74062 z m -35.1494,-7.12669 c 3.3912,-3.16916 7.3793,-4.73836 13.4484,-5.29152 5.9804,-0.54509 7.4878,-1.54154 6.7959,-4.4925 -0.7969,-3.39932 -10.2135,-32.11494 -13.2744,-40.48 -1.771,-4.84 -3.4692,-8.8 -3.7737,-8.8 -0.3046,0 -0.5538,3.68643 -0.5538,8.19207 0,16.58421 -1.6594,30.26499 -5.76,47.48793 -2.2648,9.51231 -2.2861,9.83822 -0.4809,7.36 0.7691,-1.056 2.3885,-2.84519 3.5985,-3.97598 z m -223.2776,-2.10702 c 42.7308,-2.55559 81.4202,-15.58811 107.7683,-36.30177 5.9945,-4.71255 19.4832,-18.29971 24.9532,-25.13523 8.0544,-10.06508 23.2436,-34.18474 22.6496,-35.96652 -0.096,-0.28919 -2.1096,1.22003 -4.4739,3.35383 l -4.2985,3.87963 -1.9052,-1.40858 -1.9052,-1.40858 -4.9942,1.75639 c -2.7468,0.96601 -8.2849,3.50323 -12.307,5.63827 -6.3776,3.38541 -7.7691,3.88485 -10.88,3.90512 -4.4104,0.0287 -7.8936,-1.66398 -12.6178,-6.13188 -4.0319,-3.8132 -5.9902,-7.5486 -5.987,-11.41974 0.01,-4.64451 3.0711,-8.42009 12.1346,-14.93761 9.8533,-7.08547 20.6625,-11.67233 31.0631,-13.18162 7.7955,-1.13125 9.6793,-1.76796 11.4473,-3.86911 2.5849,-3.07196 2.7513,-5.69555 0.627,-9.89068 l -1.8158,-3.58619 4.6671,-9.24636 c 2.7633,-5.47445 5.0439,-9.24637 5.5908,-9.24637 0.7894,0 0.9236,3.71934 0.9236,25.6 0,21.48222 0.1437,25.6 0.8935,25.6 0.8789,0 1.595,-3.09494 3.702,-16 1.1665,-7.14473 0.9858,-27.66579 -0.3187,-36.18619 -4.2308,-27.63462 -15.0126,-53.68838 -28.6226,-69.16507 -9.5274,-10.83417 -22.7563,-19.63105 -37.0031,-24.60599 -8.2862,-2.89353 -8.8458,-2.55941 -10.6701,6.37156 l -0.4441,2.17432 2.1515,-0.4582 c 5.6499,-1.20319 9.6443,-1.5128 11.9045,-0.92274 7.7442,2.02188 12.3721,3.94101 13.9095,5.76811 0.8896,1.05733 1.6176,2.22541 1.6176,2.59575 0,0.80757 -9.2048,0.29056 -21.3061,-1.19672 -9.5225,-1.17035 -9.7438,-1.08725 -12.1471,4.56123 -0.7545,1.77317 -3.3213,7.18394 -5.7041,12.02394 -2.3827,4.84 -4.1675,8.8 -3.9663,8.8 0.2013,0 1.1304,-0.53162 2.0647,-1.18137 8.1783,-5.68724 16.8129,-9.69863 20.8767,-9.69863 1.9274,0 4.8506,1.48157 4.1811,2.11916 -0.1754,0.1671 -4.8476,2.65984 -10.3826,5.53941 -15.8995,8.27171 -21.0727,13.10832 -27.0622,25.30143 -4.1551,8.45888 -6.5405,17.13794 -9.2499,33.6544 -2.527,15.40462 -2.0591,18.19475 4.8507,28.92782 3.2713,5.08133 3.6217,9.11748 1.2431,14.31799 -2.912,6.36684 -7.3677,9.82357 -12.6526,9.81571 -3.6434,-0.005 -15.9504,-3.28076 -22.7619,-6.05777 -15.9951,-6.52115 -27.6635,-16.84782 -27.6635,-24.48254 0,-3.16374 2.963,-9.23907 6.4231,-13.17 4.4373,-5.04112 10.8655,-6.25587 16.9369,-3.20064 1.408,0.70853 5.728,2.91898 9.6,4.9121 8.4901,4.37032 13.5211,6.32501 15.0391,5.84321 1.5714,-0.49875 1.9209,-2.94329 1.9209,-13.43645 0,-13.58936 0.8843,-17.75456 7.3274,-34.51116 1.4344,-3.73055 1.5215,-4.28453 0.5535,-3.52 -0.6319,0.49903 -3.7436,3.04755 -6.9149,5.66338 -16.0279,13.22045 -34.9919,22.34142 -55.366,26.62903 -9.508,2.00089 -19.4903,2.88995 -32.2146,2.86914 -18.8394,-0.0308 -31.1299,-1.63598 -49.7054,-6.4917 -18.5429,-4.84716 -21.9632,-5.6927 -22.1742,-5.48167 -0.116,0.11595 0.5285,1.19819 1.4322,2.40498 5.146,6.872 6.7598,14.62386 4.1617,19.99071 -1.6483,3.40505 -4.5294,5.51951 -10.6197,7.79401 -6.7368,2.51593 -31.7574,8.66686 -35.7621,8.79155 -1.2267,0.0382 -2.25,-0.45698 -3.0635,-1.48237 -1.6303,-2.05513 -4.7256,-8.14592 -5.2545,-10.33973 -0.4869,-2.01956 0.4005,-2.33352 1.6438,-0.58157 1.3104,1.84648 3.3717,2.66201 6.7142,2.65632 3.7087,-0.006 34.865,-7.8779 37.6186,-9.50429 1.9021,-1.12343 1.9416,-1.24896 1.8574,-5.89916 -0.057,-3.17702 -0.5353,-5.87411 -1.442,-8.14002 l -1.3559,-3.38873 1.5493,-1.43587 1.5494,-1.43588 -4.2674,-1.50305 c -10.7609,-3.79019 -40.9587,-17.24563 -90.9873,-40.54184 -28.4381,-13.24239 -43.974,-19.15056 -62.564,-23.79249 -26.9038,-6.71791 -58.5021,-9.51432 -72.9969,-6.46013 -5.8844,1.23989 -8.518,2.37578 -23.1591,9.98849 -17.8455,9.27885 -33.3654,19.10513 -44.6095,28.24405 -11.2199,9.11928 -24.5105,22.22105 -24.5105,24.16219 0,0.26987 2.376,-0.4511 5.28,-1.60217 3.7167,-1.47323 9.1644,-2.76699 18.4,-4.36986 20.2042,-3.5065 24.0191,-3.81628 41.9077,-3.40302 32.1555,0.74285 51.2876,4.12212 93.159,16.4545 25.8412,7.61103 35.8326,11.15953 63.2432,22.46136 28.9275,11.92728 27.2784,11.2101 53.2101,23.14053 40.209,18.49904 53.861,23.59678 77.561,28.96174 39.9405,9.04134 66.489,10.56415 100.039,5.73819 42.2494,-6.07732 76.4358,-23.55601 96.8307,-49.50723 5.4192,-6.89563 6.9753,-9.32349 10.5529,-16.46488 7.4782,-14.92706 10.2331,-27.50308 10.322,-47.1187 0.051,-11.09573 0.149,-12.0745 1.3344,-13.23936 2.507,-2.46368 2.8597,-2.04308 6.3909,7.62088 1.865,5.104 4.1622,11.10178 5.105,13.3284 3.4152,8.06637 1.7594,20.90452 -3.6006,27.9151 -1.1744,1.53612 -2.1739,2.74875 -2.221,2.69473 -0.047,-0.054 0.3009,-4.41823 0.7734,-9.69823 1.0453,-11.6795 1.0501,-11.84 0.3536,-11.84 -0.3073,0 -1.0284,2.56728 -1.6025,5.70506 -3.4859,19.05415 -16.7523,43.93154 -32.0788,60.15499 -11.0783,11.72664 -22.3792,19.99424 -37.44,27.39081 -19.1209,9.39047 -37.6842,14.7687 -61.76,17.89335 -7.2272,0.93795 -13.4159,1.16145 -32,1.15563 -22.8271,-0.007 -23.1672,-0.0267 -36.8,-2.11515 -40.055,-6.13615 -53.4042,-10.39008 -99.2,-31.61188 -35.539,-16.46875 -90.527,-40.38695 -100.3528,-43.65056 -1.8638,-0.61906 -4.0615,-0.95673 -4.8836,-0.75038 -2.5905,0.65017 -10.7437,13.39677 -14.6999,22.98174 -6.4904,15.7245 -8.9226,34.98245 -7.2905,57.72639 0.6913,9.63366 1.4697,12.48382 3.8133,13.9631 0.8214,0.51846 9.9895,3.43587 20.3735,6.48313 10.384,3.04727 24.784,7.57489 32,10.06138 16.4231,5.65911 17.4148,5.79991 20.8,2.95333 1.408,-1.18397 6.448,-5.16125 11.2,-8.8384 4.752,-3.67714 13.68,-10.73199 19.84,-15.67743 6.16,-4.94543 12.5541,-9.9215 14.2091,-11.05792 6.8442,-4.69956 12.4574,-5.95276 19.8196,-4.42494 2.5802,0.53545 6.8004,1.31942 9.3782,1.74217 6.9809,1.1448 12.6059,4.22197 17.6227,9.64062 3.5291,3.81175 5.2327,6.61814 11.5416,19.01337 6.9795,13.71253 12.5833,24.15547 20.822,38.8027 1.9617,3.48761 4.2868,6.86262 5.1668,7.50004 3.5293,2.55641 31.0324,7.00233 50.56,8.17312 12.5902,0.75484 15.2053,0.76095 26.88,0.0627 z m -48.96,-21.19942 c -8.6098,-1.07718 -10.88,-1.76632 -12.9855,-3.94175 -5.1245,-5.29484 -5.3622,-12.63641 -0.6789,-20.9691 1.2161,-2.16386 3.6963,-3.80673 5.7469,-3.80673 0.993,0 3.1175,5.05843 3.1175,7.42293 0,1.85671 -0.5408,2.94058 -2.56,5.1312 -3.2689,3.54632 -3.4863,6.13403 -0.6389,7.60646 3.4597,1.78906 14.2891,3.03966 23.0389,2.66055 12.2474,-0.53065 24.8537,-4.11042 27.2262,-7.73132 1.294,-1.97486 0.9375,-5.45002 -1.0109,-9.85463 -1.1747,-2.65558 -1.368,-2.79859 -3.3312,-2.46428 -1.1463,0.1952 -9.1401,1.13751 -17.7641,2.09402 -17.46,1.93652 -21.9888,1.82513 -21.6387,-0.53222 0.3038,-2.04495 5.4699,-3.48228 14.3516,-3.99291 4.1839,-0.24054 10.4162,-0.83998 13.8495,-1.33209 6.4164,-0.91966 7.869,-0.83467 13.9176,0.81432 4.294,1.17069 6.5039,3.14021 8.3628,7.45322 2.7092,6.28614 1.1835,13.60119 -3.4287,16.4388 -7.4771,4.60027 -29.4849,7.01649 -45.5741,5.00353 z m 99.0924,-5.62704 c -5.5313,-1.38427 -14.4976,-9.56179 -15.326,-13.97778 -0.7115,-3.79252 0.8073,-3.70013 5.1417,0.31276 4.7378,4.38642 8.3327,6.06059 13.0976,6.09968 6.6284,0.0544 12.8923,-4.49461 15.0964,-10.96336 1.3206,-3.8757 1.2312,-6.39673 -0.3794,-10.70156 -2.6374,-7.04898 -8.2513,-11.36198 -14.717,-11.30671 -4.6447,0.0397 -8.5831,1.79927 -12.8055,5.72116 l -3.3216,3.08527 0.4361,-2.23741 c 0.6145,-3.15213 3.4508,-6.44989 7.158,-8.32259 2.6407,-1.33402 4.0716,-1.59943 8.6073,-1.59658 4.5174,0.003 6.0369,0.28471 8.96,1.66217 4.8849,2.30197 9.6014,6.76703 11.863,11.2306 1.6848,3.32503 1.897,4.38811 1.897,9.50381 0,5.18809 -0.2101,6.20482 -2.1156,10.24 -2.6359,5.58211 -5.8544,8.96744 -9.6823,10.18449 -3.6462,1.15925 -11.2183,1.73959 -13.9097,1.06605 z m -93.2778,-4.68517 c -1.5182,-0.40139 -3.5985,-1.75551 -5.28,-3.43702 -2.8077,-2.80773 -3.6088,-4.54541 -1.7703,-3.8399 0.5524,0.21196 4.5124,0.56713 8.8,0.78927 8.9736,0.46491 17.2587,-0.42058 25.004,-2.67236 2.8338,-0.82388 5.2748,-1.37558 5.4244,-1.226 0.5287,0.52879 -2.706,4.59574 -4.7926,6.02549 -3.234,2.216 -6.4098,3.08938 -15.1518,4.16694 -8.9881,1.10788 -8.7873,1.10471 -12.2337,0.19358 z m -197.0515,-45.86982 c -7.9132,-3.18862 -14.0328,-10.26016 -16.2002,-18.72007 -3.8027,-14.84361 8.4729,-28.53504 24.4356,-27.25371 8.1295,0.65256 15.329,6.1776 19.5358,14.99198 1.9161,4.01499 1.9947,4.48957 1.7158,10.36693 -0.3502,7.37919 -1.6825,10.83208 -5.933,15.37621 -3.9949,4.27085 -8.1107,5.98458 -15.0371,6.26121 -4.2665,0.17039 -6.1038,-0.0502 -8.5169,-1.02255 z m 12.8157,-9.81989 c 7.68,-3.76024 10.745,-12.62253 7.2085,-20.84326 -3.481,-8.09179 -13.3786,-11.4218 -21.5532,-7.25146 -10.2328,5.22041 -11.1253,21.2121 -1.5152,27.15144 5.1087,3.15739 10.663,3.48772 15.8599,0.94328 z m 172.5516,-17.71328 c -17.5302,-6.31097 -22.6727,-26.66932 -9.7822,-38.72685 4.714,-4.4094 9.3348,-6.32966 15.1412,-6.29225 6.1144,0.0394 10.429,2.14139 15.3862,7.4958 9.7781,10.56152 9.8027,22.88416 0.065,32.52014 -6.0311,5.96801 -13.2852,7.71206 -20.8099,5.00316 z m 11.1058,-8.27096 c 9.8903,-5.09639 12.1497,-18.0373 4.4842,-25.68428 -3.4468,-3.43858 -5.5576,-4.51327 -9.7049,-4.94132 -7.1355,-0.73645 -14.8781,4.20993 -17.1843,10.97829 -2.1823,6.40462 -1.0979,10.67167 4.0102,15.77976 5.6436,5.64352 12.2519,7.03294 18.3948,3.86755 z m 127.3157,-40.54621 c -7.3472,-0.93823 -14.4719,-7.05766 -14.4719,-12.42993 v -2.18496 l 4.8168,3.28254 c 9.1658,6.24624 14.3602,6.12976 21.0299,-0.47159 5.0607,-5.00876 5.9828,-10.27531 2.7074,-15.46374 -2.9181,-4.62265 -3.0455,-4.59451 -7.2016,1.5912 -4.9553,7.37511 -6.1788,8.22434 -11.7609,8.16339 -4.858,-0.053 -7.9191,-1.55129 -9.8509,-4.82161 -1.1459,-1.93988 -1.3381,-6.05235 -0.3985,-8.52394 1.0797,-2.83965 5.6555,-7.19635 9.1267,-8.68962 9.0896,-3.91023 22.4002,1.63971 27.133,11.31327 1.4503,2.96421 1.7538,4.43898 1.7538,8.52007 0,5.50245 -0.7612,7.93584 -3.8115,12.18305 -4.5764,6.37226 -10.3373,8.64731 -19.0723,7.53187 z m -1.2131,-23.33398 c 2.6669,-1.26552 4.6555,-4.24085 4.6588,-6.97055 0.01,-6.62165 -10.4134,-6.53166 -13.19,0.11391 -1.3369,3.19936 -1.1068,5.10014 0.7987,6.59896 2.0392,1.60406 4.7078,1.69299 7.7325,0.25768 z m -314.0588,5.34286 c -5.8874,-1.67904 -11.6643,-6.65339 -14.5456,-12.52482 -2.4349,-4.96167 -2.7664,-12.35371 -0.7926,-17.66927 1.855,-4.99549 6.1747,-9.32441 10.8561,-10.87931 7.5862,-2.51973 16.4197,-0.15422 23.4632,6.28313 5.9972,5.48112 7.6856,10.77608 5.751,18.03618 -1.2568,4.71628 -2.7362,7.20756 -6.5376,11.00897 -5.3633,5.36332 -12.0879,7.48667 -18.1945,5.74512 z m 8.3104,-9.06915 c 5.5049,-2.84671 9.6096,-8.52 9.6096,-13.28202 0,-3.65687 -1.1228,-6.09833 -3.8662,-8.40668 -2.7291,-2.29647 -3.4296,-2.12042 -4.2847,1.07699 -1.016,3.79855 -4.5227,8.74406 -7.1992,10.15291 -1.5749,0.82902 -3.6086,1.17386 -6.9231,1.17386 -4.5695,0 -4.6816,0.0379 -4.257,1.44 2.3233,7.67133 10.197,11.32185 16.9206,7.84494 z m -8.45,-15.13231 c 3.1826,-1.54065 5.2584,-4.41761 5.2474,-7.27263 -0.01,-2.27733 -0.4704,-3.07708 -2.3458,-4.06419 -3.1161,-1.64019 -7.0678,-0.40881 -10.0458,3.13031 -2.1373,2.54006 -2.1438,5.08002 -0.019,7.60477 1.9579,2.32681 3.3573,2.44436 7.1636,0.60174 z m -97.1404,-6.04427 c -1.232,-0.52885 -2.7496,-1.59758 -3.3723,-2.37495 -1.7543,-2.18972 -6.8677,-9.85839 -6.8677,-10.29948 0,-1.21778 2.8166,-0.0777 4.5709,1.85007 3.1624,3.47526 5.5941,3.83164 13.0054,1.90604 3.4201,-0.88862 9.9667,-2.03168 14.548,-2.54014 4.5814,-0.50847 8.7473,-1.27101 9.2577,-1.69455 1.6941,-1.406 2.2442,-3.18544 2.7928,-9.0336 0.5966,-6.36014 1.4508,-7.93518 3.9618,-7.30497 2.504,0.62847 4.6503,5.15351 4.6024,9.70322 -0.1135,10.77558 -5.6952,16.57075 -16.579,17.21317 -5.5269,0.32623 -9.2741,1.03731 -13.6805,2.59614 -3.5209,1.24555 -9.3122,1.23563 -12.2395,-0.0209 z m 491.3654,188.62383 c 8.7786,-7.88934 15.6796,-15.39182 15.3428,-16.67999 -0.1606,-0.61388 -2.2698,-3.75676 -4.6872,-6.98417 -3.3344,-4.45154 -4.7542,-5.86803 -5.8819,-5.86803 -1.3763,0 -7.2139,5.04074 -21.4191,18.49523 -4.7535,4.50225 -4.8587,5.98028 -0.671,9.42768 5.381,4.42967 8.7981,6.63709 10.2744,6.63709 0.9057,0 3.5414,-1.88178 7.042,-5.02781 z m -41.7517,-78.87609 c 7.5539,-5.52034 11.7355,-7.23381 23.984,-9.82791 3.9692,-0.84066 7.6816,-1.99323 8.2496,-2.56126 0.8133,-0.81348 1.028,-2.36619 1.0106,-7.31164 -0.029,-8.26147 -0.835,-9.67529 -5.5156,-9.67529 -7.1073,0 -26.4224,5.30248 -33.169,9.10572 -4.9986,2.81785 -11.3202,7.9285 -13.1646,10.64286 -2.9243,4.30347 -1.8802,6.40108 5.1513,10.34935 6.1802,3.47026 7.839,3.38126 13.4537,-0.72183 z m -69.8189,-27.67273 c 2.6444,-2.64444 2.9537,-13.76077 0.446,-16.03022 -0.5835,-0.52802 -3.2859,-1.41963 -6.0054,-1.98136 -6.1399,-1.26824 -11.984,-3.62334 -19.0354,-7.67102 -8.2933,-4.76056 -10.988,-6.10077 -12.2667,-6.10077 -1.9703,0 -6.1733,4.3992 -8.2678,8.65363 -3.0403,6.17568 -2.4499,6.99116 9.6545,13.3355 10.2014,5.34693 16.1514,7.82141 23.36,9.71493 7.5541,1.98428 10.1925,2.00155 12.1148,0.0793 z m -72.7484,-59.65003 c 12.8978,-1.8912 23.6741,-5.2161 35.3929,-10.92003 18.5623,-9.03502 31.2917,-19.5267 42.2931,-34.85837 4.4239,-6.16526 11.1532,-19.61329 13.5881,-27.15494 6.2076,-19.22636 5.4484,-38.423 -2.1514,-54.4 -2.381,-5.00572 -7.3208,-11.50317 -8.29,-10.90418 -0.2681,0.16566 -0.8362,2.97488 -1.2626,6.24269 -0.4263,3.26782 -1.0458,7.69488 -1.3765,9.83791 -2.8359,18.37404 -18.8626,41.32279 -37.4,53.55336 -9.4459,6.23216 -16.8632,9.52339 -27.6494,12.2686 -9.7936,2.49259 -16.7606,3.22387 -29.9506,3.14373 -17.1664,-0.1043 -33.4182,-2.50094 -48,-7.07854 -15.0826,-4.73479 -49.115,-18.20912 -62.1504,-24.60699 -4.5373,-2.22693 -8.4613,-4.05068 -8.7199,-4.05278 -0.2587,-0.002 -1.5946,1.35667 -2.9686,3.01947 l -2.4983,3.02327 -0.3311,-1.73178 c -0.182,-0.95247 0.074,-2.51464 0.5686,-3.47148 1.7755,-3.43332 0.8239,-5.31059 -3.6363,-7.17421 -1.237,-0.51686 -6.518,-2.97584 -11.7354,-5.4644 -5.2175,-2.48857 -9.5675,-4.52467 -9.6666,-4.52467 -0.099,0 -4.4111,-2.016 -9.582,-4.48 -5.171,-2.464 -9.5013,-4.48 -9.623,-4.48 -0.1217,0 -2.6613,-1.13249 -5.6436,-2.51663 -20.8911,-9.69605 -42.9194,-16.48454 -61.6816,-19.00845 -9.843,-1.3241 -48.5239,-0.74764 -51.4525,0.7668 -2.4828,1.28389 -4.3666,3.99994 -8.4052,12.11828 -6.9199,13.91028 -9.4754,22.03387 -10.3688,32.96 -0.4777,5.8411 0.4739,14.53354 1.7283,15.7879 0.7716,0.77164 2.9746,0.83625 13.812,0.40509 24.1144,-0.9594 34.783,0.1162 58.9656,5.94482 22.5482,5.4347 27.9068,7.29002 58.5888,20.28537 32.234,13.65273 34.8342,14.69132 35.8271,14.3103 2.7433,-1.05268 3.27,-10.20238 0.8605,-14.94673 -1.2551,-2.47132 -2.2379,-3.32868 -6.2876,-5.48484 -17.7804,-9.46674 -21.4337,-12.10425 -23.8661,-17.23011 -2.411,-5.08084 -0.2672,-13.39784 4.7295,-18.34809 2.9395,-2.91218 5.5595,-3.92371 10.163,-3.92371 3.5803,0 4.5919,0.37542 13.6205,5.05443 5.3642,2.77994 12.4891,6.26112 15.8331,7.73595 16.5938,7.31855 19.1166,9.02339 22.0433,14.89667 2.0127,4.03893 2.1541,8.69743 0.4038,13.3039 -3.3344,8.77535 -9.1679,11.77648 -19.1705,9.86245 -6.8134,-1.3038 -9.4755,-1.22504 -10.2941,0.30453 -1.4588,2.72572 -0.2504,8.18917 2.2891,10.35037 1.3234,1.12621 19.1137,8.89319 27.7684,12.12327 45.9952,17.16622 85.7412,23.85262 115.6864,19.46177 z m -70.8372,-11.989 c -3.0173,-0.98205 -9.3843,-7.38277 -11.0183,-11.07657 -1.6859,-3.81139 -2.2755,-12.01319 -1.2263,-17.06139 1.0188,-4.90202 4.046,-9.23956 7.7987,-11.17424 5.4536,-2.81162 9.1777,-2.75178 12.6903,0.20391 4.0332,3.39372 5.1306,7.8357 3.1011,12.55331 -1.598,3.71461 -6.1934,7.97732 -9.2101,8.54325 -2.213,0.41517 -7.3174,-0.55235 -10.9846,-2.08213 -2.0391,-0.85057 -2.08,-0.83454 -2.08,0.8138 0,4.58531 7.1856,11.23927 13.0942,12.12531 6.093,0.9137 14.3079,-4.14394 17.1761,-10.57465 1.6616,-3.72544 1.6398,-9.8964 -0.054,-15.19886 -1.1231,-3.51655 -1.1494,-3.91539 -0.2245,-3.39979 8.1461,4.54096 10.3046,18.91666 4.2207,28.10997 -3.5892,5.42365 -17.1565,10.2123 -23.2836,8.21808 z m 2.53,-24.30434 c 3.2258,-1.62963 5.787,-4.96503 5.2854,-6.88314 -0.5217,-1.99488 -4.4769,-5.11686 -6.4826,-5.11686 -1.8737,0 -5.4358,2.27679 -7.2878,4.65818 -1.5819,2.03403 -1.3896,4.54009 0.5227,6.81271 2.0159,2.39581 4.0055,2.52802 7.9623,0.52911 z m 91.9708,21.89878 c -5.7331,-1.43429 -11.804,-6.16556 -13.6836,-10.66405 -0.5178,-1.23919 -0.8504,-2.34414 -0.7391,-2.45543 0.1113,-0.1113 3.2024,0.63983 6.869,1.66917 3.6667,1.02934 7.4897,1.87153 8.4958,1.87153 2.7812,0 5.9235,-1.55877 7.4424,-3.6919 2.1322,-2.99433 10.0842,-8.72747 16.5624,-11.9409 3.2433,-1.60881 6.1953,-3.48264 6.56,-4.16408 0.9938,-1.85704 0.8257,-3.80569 -1.0006,-11.5941 -0.9151,-3.90222 -1.5561,-7.20259 -1.4245,-7.33413 0.1315,-0.13155 1.399,0.28013 2.8167,0.91484 2.1382,0.95732 2.8638,1.79627 4.2572,4.92214 3.562,7.99106 4.3336,10.72386 4.3339,15.34894 4e-4,5.31856 -0.4554,5.92198 -5.7596,7.6247 -4.3479,1.39574 -7.1559,2.77399 -13.92,6.83242 -5.1149,3.06893 -5.28,3.2432 -5.28,5.57347 0,1.67777 -0.4357,2.80381 -1.44,3.72218 -3.5193,3.21789 -9.2285,4.58145 -14.09,3.3652 z m -92.918,-12.05263 c 2.3635,-2.15305 11.2684,-7.7796 11.7962,-7.45341 0.9975,0.61646 0.7749,3.95273 -0.338,5.06559 -0.5444,0.54437 -2.4686,1.42893 -4.2762,1.96572 -3.5663,1.05908 -8.1789,1.33017 -7.182,0.4221 z m 77.742,-8.24615 c 0.027,-2.18275 2.4732,-6.49085 5.1719,-9.10985 2.3433,-2.27405 10.6055,-7.69015 11.7312,-7.69015 0.2057,0 -3.1379,4.032 -7.4301,8.96 -7.4939,8.60398 -9.5034,10.26708 -9.473,7.84 z m 63.5637,-13.76 c 0.196,-0.792 2.0819,-10.08 4.1908,-20.64 6.8054,-34.07594 7.3576,-38.36286 5.5115,-42.78129 -1.6151,-3.86545 -0.7598,-12.79043 1.4677,-15.31691 0.9504,-1.07791 1.0663,-1.03921 2.1869,0.73059 1.6664,2.63196 3.0419,9.74245 3.0502,15.76761 0.01,5.67138 -1.4864,25.6027 -2.5909,34.56 -0.5237,4.24714 -1.3673,7.23107 -3.212,11.36088 -1.3761,3.08048 -2.5019,5.82972 -2.5019,6.10942 0,0.70362 -5.4981,9.5592 -6.6503,10.7114 -1.3408,1.34084 -1.8635,1.16027 -1.452,-0.5017 z m -388.9921,-39.36 c 0.5242,-6.76066 4.3532,-18.02642 9.8122,-28.86999 7.2891,-14.47892 7.6279,-14.95592 11.5594,-16.27227 1.8764,-0.62825 3.5274,-1.02646 3.6689,-0.88493 0.9315,0.93147 -2.4111,8.84908 -12.0396,28.51845 -8.5988,17.56578 -11.2592,22.46874 -12.1922,22.46874 -1.0949,0 -1.1616,-0.4092 -0.8087,-4.96 z m 49.8944,2.44207 c -6.855,-1.85764 -12.7478,-7.08108 -14.3701,-12.73777 -0.6976,-2.43222 -0.5295,-2.4701 2.0928,-0.47174 1.1205,0.85391 3.9093,2.43768 6.1973,3.5195 7.7016,3.6415 13.7601,2.41842 19.5838,-3.95359 5.5364,-6.05775 6.0023,-11.21761 1.8924,-20.96234 l -2.159,-5.11923 1.8989,1.12155 c 9.1877,5.42671 12.9225,16.54926 8.5547,25.47666 -2.335,4.77256 -7.0402,9.51768 -11.3799,11.47655 -3.7342,1.68549 -9.3857,2.44314 -12.3109,1.65041 z m -7.7282,-19.25414 c -4.5169,-2.23585 -6.8198,-6.63604 -6.0675,-11.59325 1.4958,-9.85565 12.6639,-14.83985 19.602,-8.74811 2.9302,2.57269 4.1137,4.93901 4.1137,8.22493 0,3.23482 -1.3082,6.13562 -4.0297,8.93575 -4.522,4.65261 -8.6821,5.62422 -13.6185,3.18068 z m 8.4875,-5.22497 c 2.6277,-1.26368 4.8556,-4.91018 4.3994,-7.20096 -0.4462,-2.2407 -2.0285,-4.13089 -4.1309,-4.93466 -3.567,-1.36366 -9.1654,2.84375 -10.0487,7.55187 -0.3994,2.12902 -0.2331,2.55495 1.6563,4.24317 2.2634,2.02234 4.4373,2.11348 8.1239,0.34058 z m 139.9323,58.32793 c 1.9972,-1.57097 2.98,-4.76514 2.9848,-9.70078 0.01,-6.14069 -0.3328,-6.47436 -9.5517,-9.40768 -9.4832,-3.0174 -19.6014,-8.03077 -27.9365,-13.84204 -7.0212,-4.89521 -8.7771,-5.20143 -11.8151,-2.06039 -3.1767,3.28449 -6.4559,8.70071 -6.5145,10.75978 -0.072,2.52614 1.0068,3.57904 8.3147,8.11675 12.4598,7.73676 22.8928,12.65374 33.5044,15.79034 6.6125,1.95456 8.8765,2.02527 11.0139,0.34402 z m 137.0684,-16.63 c 16.4551,-3.47492 29.6675,-10.62883 41.4141,-22.42388 9.1988,-9.2367 14.0856,-18.07766 17.4753,-31.61533 2.2006,-8.78908 1.9458,-10.30631 -2.3381,-13.91854 -4.0709,-3.43263 -5.2868,-5.68871 -4.7786,-8.86676 l 0.3855,-2.41054 -13.5995,-4.53292 c -7.4796,-2.4931 -13.8152,-4.53292 -14.0791,-4.53292 -0.2638,0 -0.4835,0.792 -0.4882,1.76 -0.014,2.88968 -3.5503,12.1695 -6.1018,16.01227 -4.5869,6.90843 -11.1447,12.90768 -19.3952,17.74317 -2.164,1.26823 -3.925,2.50808 -3.9136,2.75522 0.012,0.24714 3.0398,4.04934 6.7296,8.44934 3.6898,4.4 7.2804,9.17093 7.9792,10.60206 4.7407,9.70998 -4.1741,24.91337 -15.9139,27.13978 -4.1898,0.79458 -11.7013,-0.52725 -16.591,-2.91958 -3.9106,-1.91324 -9.0791,-7.66796 -11.4396,-12.73703 -2.5849,-5.55089 -1.805,-12.69045 2.2559,-20.65052 0.7474,-1.46505 1.359,-2.9197 1.359,-3.23258 0,-0.31287 -3.672,-0.73415 -8.16,-0.93618 -9.889,-0.44516 -18.9999,-2.22933 -28.1717,-5.51678 -3.7776,-1.35403 -22.4203,-10.21128 -41.4283,-19.68279 -62.4979,-31.14211 -68.567,-33.69122 -86.724,-36.42536 -9.1582,-1.37905 -37.8949,-1.97242 -46.742,-0.96513 -19.2074,2.18685 -35.3466,7.84556 -49.9822,17.52468 -5.4268,3.58895 -18.7979,15.04666 -18.2264,15.6182 0.1714,0.1714 1.6983,-0.14633 3.3931,-0.70607 8.4645,-2.79555 33.5347,-3.78888 49.4815,-1.96055 30.7904,3.53019 53.9793,11.62283 107.2,37.41134 31.3578,15.1947 46.4219,21.65055 65.6,28.11349 32.1266,10.82653 43.3072,12.95903 65.6,12.51207 9.8086,-0.19665 14.2957,-0.57249 19.2,-1.60816 z m -159.5551,-48.61381 c -11.7571,-4.96618 -19.2702,-11.48414 -20.8486,-18.08708 -0.3566,-1.49173 -0.2173,-1.76 0.9135,-1.76 1.7617,0 3.3544,0.89452 7.2771,4.08696 6.0049,4.88699 13.8664,8.64854 20.0465,9.5919 2.2161,0.33826 2.9493,0.17836 4,-0.87234 1.1189,-1.11884 1.2866,-2.12893 1.2866,-7.7498 0,-7.57824 -0.9268,-10.19955 -4.1462,-11.72727 -1.17,-0.5552 -2.5301,-1.00945 -3.0224,-1.00945 -1.6652,0 -6.0538,-3.3363 -7.2081,-5.47969 -1.0816,-2.00853 -1.0124,-4.12031 0.1351,-4.12031 1.0554,0 12.1275,7.55374 15.8416,10.80766 4.7276,4.14186 6.1881,6.86167 6.568,12.23127 0.4853,6.8572 -1.6681,12.13319 -6.1979,15.18584 -3.3463,2.25507 -7.433,1.94877 -14.6452,-1.09769 z m 153.1739,34.69656 c 11.4584,-5.89076 11.1261,-23.09468 -0.5613,-29.05714 -7.1156,-3.63008 -16.7445,0.2309 -20.7007,8.30044 -4.5083,9.19573 -0.4209,18.75145 9.399,21.97346 2.6362,0.86498 9.1041,0.20158 11.863,-1.21676 z m -21.5615,-48.40983 c 11.5301,-2.43265 23.0603,-8.57219 27.7488,-14.77551 4.0814,-5.40014 5.3233,-9.71034 5.2547,-18.2383 -0.049,-6.05382 -0.3679,-8.38223 -1.7986,-13.12 -6.5086,-21.55272 -20.4512,-42.159681 -38.1422,-56.373793 -5.5507,-4.459763 -14.2094,-10.590189 -14.5196,-10.279986 -0.1166,0.116589 0.9624,2.71811 2.3978,5.781159 6.7794,14.466871 8.1346,32.152798 3.5063,45.76051 -2.6931,7.91803 -5.3512,12.14526 -11.5309,18.33775 -7.844,7.86034 -15.9871,12.02929 -28.564,14.62378 -6.1899,1.2769 -10.7354,0.34744 -13.515,-2.76348 -2.1007,-2.35103 -2.1968,-3.50577 -0.5205,-6.25487 1.6609,-2.72403 3.799,-3.73697 12.6256,-5.98153 14.6286,-3.71995 23.0665,-9.71054 27.9021,-19.80954 7.0548,-14.733665 6.6752,-28.536731 -1.2321,-44.800001 -3.2272,-6.637502 -4.1558,-7.932911 -9.4598,-13.196174 -4.5869,-4.551665 -6.9471,-6.348782 -10.7236,-8.165207 -6.4564,-3.105382 -13.2345,-4.766507 -23.0257,-5.64295 -10.0865,-0.90288 -15.9084,-0.158955 -18.4207,2.353802 -2.6543,2.654794 -2.1861,5.693459 2.3725,15.397215 5.0672,10.786356 6.5356,15.761807 6.9948,23.700904 0.7532,13.023226 -1.9515,22.283449 -8.3317,28.525421 -4.3076,4.21429 -5.6949,4.73902 -8.6754,3.28153 -3.0745,-1.50344 -3.8224,-3.31209 -4.5568,-11.019783 -0.339,-3.557664 -0.9187,-7.033491 -1.2883,-7.724064 -1.1109,-2.075699 -3.6792,-2.249517 -9.9143,-0.670963 -17.7699,4.498822 -29.4635,13.05315 -36.1758,26.46382 -1.808,3.61224 -2.3657,5.35428 -1.9575,6.11401 0.3627,0.67491 6.4875,3.013 16.7918,6.41004 26.5848,8.76438 54.686,19.57392 83.3575,32.06483 17.7413,7.72911 25.3336,10.14163 34.9433,11.10349 4.0915,0.40954 14.135,-0.19017 18.4573,-1.10211 z m -4.2608,-14.14626 c -1.168,-0.50729 -3.0022,-1.54801 -4.0761,-2.31271 -2.2526,-1.60395 -5.6404,-6.64719 -5.6404,-8.39641 0,-1.0835 0.2454,-1.03874 2.72,0.49599 10.5101,6.51848 15.7982,6.41992 23.2328,-0.43305 6.848,-6.31226 7.8894,-15.64804 2.5293,-22.67541 -1.8602,-2.43893 -6.5105,-5.81094 -7.1423,-5.17909 -0.2168,0.2168 0.221,1.82433 0.973,3.5723 3.0902,7.18345 0.6907,13.07747 -7.246,17.79815 -1.6545,0.98411 -7.031,1.0483 -8.8689,0.10589 -1.9471,-0.99838 -5.5579,-4.50172 -5.5579,-5.39245 0,-1.15525 -3.6396,-6.2837 -4.7313,-6.6667 -0.7532,-0.26426 -0.2065,-1.25868 2.3573,-4.28766 4.7007,-5.55358 5.9656,-6.38112 11.5023,-7.52474 8.9545,-1.8496 13.4936,-1.2021 19.2273,2.74276 2.7311,1.87903 4.2844,2.16047 4.2844,0.77629 0,-0.73771 -9.6707,-18.422162 -12.4501,-22.767127 -1.8383,-2.873728 -12.9008,-18.16288 -15.8014,-21.838669 -0.3445,-0.436563 -0.2285,-0.993805 0.2979,-1.430682 0.6763,-0.561241 2.2029,0.542688 7.0779,5.118036 12.493,11.725075 21.6539,26.082812 27.8434,43.638732 2.1799,6.18316 2.505,10.3336 1.0538,13.45228 -0.5161,1.10919 -1.0201,3.74472 -1.12,5.85672 -0.1796,3.79886 -0.2091,3.85284 -2.755,5.0382 -1.5507,0.72196 -3.3313,2.31679 -4.48,4.0125 -2.0442,3.01754 -5.0614,5.31526 -8.562,6.52037 -3.0337,1.04436 -12.0659,0.90672 -14.668,-0.22352 z m 1.868,-21.51593 c 2.7406,-0.91762 6.0924,-3.38165 7.0605,-5.19049 1.0431,-1.94904 0.8331,-4.87299 -0.4519,-6.29294 -3.1918,-3.52683 -11.1968,-1.02026 -13.4223,4.20283 -0.9231,2.16663 -0.4931,3.41827 2.1471,6.24898 1.8831,2.01897 1.7834,1.99694 4.6666,1.03162 z m 2.061,8.54894 c -0.4715,-0.29987 1.5377,-1.91648 5.3568,-4.3102 3.3613,-2.1067 6.3648,-3.92636 6.6745,-4.04369 0.3097,-0.11734 0.5632,0.63583 0.5632,1.67369 0,2.22449 -1.9373,4.90474 -4.5048,6.23243 -1.9248,0.99538 -6.804,1.26544 -8.0897,0.44777 z m -146.7655,-27.21526 c 0,-0.45908 0.8187,-2.11508 1.8195,-3.68 5.0927,-7.96375 19.6478,-17.078108 29.3944,-18.406684 8.296,-1.130835 7.6077,-0.465408 -11.9588,11.561384 -10.165,6.248 -18.6557,11.36 -18.8684,11.36 -0.2127,0 -0.3867,-0.37562 -0.3867,-0.8347 z m 70.2991,-40.925301 c -0.055,-1.496 -0.068,-3.152 -0.027,-3.68 0.04,-0.528 0.2713,-3.483027 0.5132,-6.566733 0.4278,-5.453652 0.3834,-5.717848 -1.6258,-9.676421 -1.1361,-2.238328 -4.2633,-6.483297 -6.9493,-9.433267 l -4.8835,-5.363579 2.4674,-0.204031 c 4.9503,-0.40934 11.7591,6.16252 15.0594,14.535469 1.7467,4.431431 1.6657,6.340395 -0.5728,13.508562 -1.0443,3.344 -2.0621,6.872 -2.2617,7.84 -0.5536,2.684876 -1.606,2.09726 -1.7193,-0.96 z"
     id="path3745"
     inkscape:connector-curvature="0"
     inkscape:export-xdpi="96"
     inkscape:export-ydpi="96" />
</svg>
