<?xml version="1.0" encoding="UTF-8" standalone="no"?>
<!-- Created with Inkscape (http://www.inkscape.org/) -->

<svg
   xmlns:dc="http://purl.org/dc/elements/1.1/"
   xmlns:cc="http://creativecommons.org/ns#"
   xmlns:rdf="http://www.w3.org/1999/02/22-rdf-syntax-ns#"
   xmlns:svg="http://www.w3.org/2000/svg"
   xmlns="http://www.w3.org/2000/svg"
   xmlns:sodipodi="http://sodipodi.sourceforge.net/DTD/sodipodi-0.dtd"
   xmlns:inkscape="http://www.inkscape.org/namespaces/inkscape"
   version="1.1"
   id="svg815"
   width="661.76001"
   height="642.88"
   viewBox="0 0 661.76001 642.88"
   sodipodi:docname="vadar.svg"
   inkscape:version="0.92.3 (2405546, 2018-03-11)">
  <metadata
     id="metadata821">
    <rdf:RDF>
      <cc:Work
         rdf:about="">
        <dc:format>image/svg+xml</dc:format>
        <dc:type
           rdf:resource="http://purl.org/dc/dcmitype/StillImage" />
        <dc:title></dc:title>
      </cc:Work>
    </rdf:RDF>
  </metadata>
  <defs
     id="defs819" />
  <sodipodi:namedview
     pagecolor="#ffffff"
     bordercolor="#666666"
     borderopacity="1"
     objecttolerance="10"
     gridtolerance="10"
     guidetolerance="10"
     inkscape:pageopacity="0"
     inkscape:pageshadow="2"
     inkscape:window-width="1280"
     inkscape:window-height="706"
     id="namedview817"
     showgrid="false"
     inkscape:zoom="0.35355339"
     inkscape:cx="829.26513"
     inkscape:cy="-43.354717"
     inkscape:window-x="-8"
     inkscape:window-y="-8"
     inkscape:window-maximized="1"
     inkscape:current-layer="svg815" />
  <path
     style="fill:#000000;stroke-width:0.31999999"
     d="M 289.48716,620.52685 246.71461,598.24 l 42.55833,-0.0812 c 23.40709,-0.0446 61.63017,-0.0446 84.94022,0 l 42.38185,0.0812 -37.50749,19.84 c -20.62912,10.912 -39.60454,20.94109 -42.16764,22.28685 l -4.66016,2.44688 z m -45.54557,-28.92627 c -0.18984,-0.54916 -2.72188,-10.17012 -2.72188,-10.34231 0,-0.0761 40.61075,-0.13827 90.24612,-0.13827 h 90.24608 l -0.18711,0.72 c -0.10291,0.396 -0.79856,2.808 -1.54595,5.36 l -1.35881,4.64 -87.26999,0.0806 c -69.65398,0.0643 -87.29793,-2.9e-4 -87.40846,-0.32 z m -8.45528,-2.20989 c -2.48327,-3.61184 -6.5222,-6.07664 -10.31738,-6.29629 -2.49341,-0.14432 -3.45664,0.12986 -7.83242,2.22944 l -3.2432,1.55616 h -3.8644 -3.8644 l -0.45503,-1.52 c -0.8219,-2.74554 -14.99929,-47.9183 -15.0614,-47.98947 -0.11129,-0.12749 -8.28625,-1.00666 -13.30837,-1.43123 -3.11784,-0.26356 -9.95165,-0.41498 -18.4,-0.40765 -18.29479,0.016 -22.31628,0.47113 -42.26414,4.78454 -17.477266,3.7792 -31.970836,8.42621 -46.817116,15.01079 -1.8267,0.81014 -3.37194,1.47302 -3.43388,1.47302 -0.17338,0 0.17389,-2.58678 1.03102,-7.68 1.37164,-8.15046 4.04006,-18.43366 8.92656,-34.4 1.29276,-4.224 3.36108,-11.136 4.59626,-15.36 2.68233,-9.17283 9.29116,-29.36826 11.90026,-36.36509 3.58631,-9.61741 22.342916,-55.97907 25.291756,-62.51491 7.62122,-16.89178 16.75994,-32.23469 28.49498,-47.84 6.16457,-8.19766 9.85587,-12.41731 16.79603,-19.2 8.68716,-8.49005 15.01612,-13.28067 22.75007,-17.22036 9.46081,-4.81934 21.1249,-8.60777 30.20446,-9.81023 l 1.47625,-0.19551 -4.35635,4.41305 c -8.38388,8.493 -13.00255,14.45369 -18.91658,24.41305 -3.86819,6.51411 -5.95359,10.53306 -6.58472,12.68992 -0.43122,1.47373 -0.43057,1.8751 0.006,3.75834 0.81445,3.51184 1.19997,4.14809 3.27866,5.41081 3.91359,2.37738 15.74122,7.268 30.1803,12.47927 13.93046,5.02768 22.96494,7.59811 32.48,9.24092 3.79061,0.6545 5.19712,0.71866 15.84,0.72276 10.0056,0.004 26.75982,-0.59866 27.17128,-0.97716 0.1092,-0.10044 -2.49998,-12.88297 -4.78666,-23.45011 l -0.58107,-2.68528 1.45354,1.40528 c 0.79945,0.7729 4.30082,4.50125 7.78083,8.28525 3.48,3.784 6.8121,7.33283 7.40467,7.88634 3.92545,3.66649 10.51307,7.25724 15.79741,8.61081 9.20445,2.35773 19.068,0.70752 27.33834,-4.57376 3.41958,-2.18368 6.12675,-4.67949 11.64569,-10.73645 6.03021,-6.61801 10.14122,-10.79846 10.12733,-10.29836 -0.005,0.17129 -1.20518,5.97699 -2.66765,12.90156 -1.71974,8.14285 -2.53619,12.62826 -2.31136,12.69805 0.80109,0.24874 14.1561,0.83123 23.06765,1.00615 13.65376,0.26796 19.50253,-0.32631 30.59222,-3.10839 11.176,-2.80371 36.78132,-12.10246 47.48778,-17.2455 5.65856,-2.71818 6.36282,-3.30531 7.1945,-5.99799 0.9279,-3.00416 0.83321,-4.61465 -0.44327,-7.53833 -2.45596,-5.62535 -10.44237,-18.55923 -14.85878,-24.06368 -2.9688,-3.70023 -10.21607,-11.55616 -12.40074,-13.4423 -0.97305,-0.84005 -1.70608,-1.59046 -1.62896,-1.66758 0.27117,-0.27116 6.50259,0.87911 10.61725,1.95985 14.06711,3.69482 25.24707,9.21559 35.36,17.46107 4.80688,3.91926 14.71344,13.8111 18.89658,18.86851 11.62201,14.05107 22.58285,30.99878 30.8368,47.68 4.58525,9.26682 6.10304,12.89082 22.31465,53.28 7.48151,18.63917 13.85085,36.87379 18.83428,53.92 1.26057,4.312 3.5838,12.088 5.16268,17.28 4.75988,15.65242 7.42618,26.29059 8.75636,34.93677 0.85763,5.57469 1.30025,5.37219 -5.44135,2.48941 -16.39293,-7.00983 -27.76649,-10.44445 -50.3503,-15.2049 -7.44032,-1.56832 -12.96346,-2.44698 -19.4097,-3.08774 -5.54384,-0.55111 -28.7407,-0.54855 -35.2,0.004 -7.42099,0.63465 -13.07817,1.33603 -13.26918,1.64512 -0.0954,0.15427 -3.62752,11.30931 -7.84922,24.78899 l -7.67584,24.50848 h -3.89805 -3.89805 l -3.76809,-1.84 c -3.74435,-1.82839 -3.78637,-1.83997 -6.66483,-1.83728 -2.52852,0.003 -3.13242,0.11805 -4.75076,0.90989 -2.05705,1.00646 -5.2711,3.81289 -6.33126,5.52832 -0.37824,0.612 -0.75965,1.0408 -0.84755,0.95289 -0.0879,-0.0879 0.15625,-1.21149 0.54259,-2.49683 1.35597,-4.5113 3.85904,-7.91376 7.05024,-9.58352 1.2328,-0.64506 1.90042,-0.75347 4.64,-0.75347 2.83491,0 3.41805,0.10211 5.11133,0.89494 1.05123,0.49223 2.17062,1.12963 2.48755,1.41645 0.3449,0.31213 0.68362,0.40246 0.84365,0.22506 0.31321,-0.3472 35.94995,-123.37066 35.78509,-123.53552 -0.0613,-0.0613 -10.41261,25.41046 -23.00295,56.60384 -12.5903,31.19337 -22.9847,56.67945 -23.09859,56.63574 -0.11392,-0.0437 -20.19734,-20.19478 -44.62986,-44.78016 l -44.42275,-44.70067 0.48259,-1.93984 c 0.70039,-2.81539 0.67581,-9.66576 -0.0443,-12.33984 -0.95613,-3.55059 -2.39735,-6.00343 -5.19127,-8.8352 -2.76467,-2.80211 -4.184,-3.55002 -8.48051,-4.46887 -4.29069,-0.9176 -10.01319,-0.1958 -13.56538,1.71104 -3.76804,2.02276 -7.26181,6.8546 -8.52358,11.78807 -0.78082,3.05296 -0.83926,8.10387 -0.13332,11.52157 l 0.49773,2.40966 -4.33816,4.53686 c -2.38599,2.49527 -22.44596,22.72487 -44.57773,44.95463 l -40.23956,40.41782 -22.85513,-56.73779 c -12.57033,-31.20576 -22.97163,-56.87187 -23.114,-57.03574 -0.14238,-0.16391 0.007,0.62809 0.33233,1.76 5.27842,18.37443 35.35366,122.09113 35.4289,122.17913 0.057,0.0667 0.79305,-0.31574 1.63574,-0.84979 2.18331,-1.38362 4.26208,-1.99136 6.81134,-1.99136 4.62527,0 8.20142,2.44451 10.40188,7.1103 0.94935,2.01296 2.22571,5.97517 1.99607,6.19642 -0.0424,0.0409 -0.56916,-0.64134 -1.17053,-1.51603 z m 2.01812,-74.88144 c 5.52168,-21.09533 5.62924,-21.40333 11.88427,-34.02925 6.22254,-12.56038 12.42742,-20.71011 19.00972,-24.96819 2.1168,-1.36935 17.92066,-8.86995 24.30774,-11.53661 3.27678,-1.36806 4.83355,-2.5511 4.83355,-3.67312 0,-3.35702 -14.37496,-8.94573 -28.96,-11.2591 -3.99092,-0.63303 -5.68521,-0.71104 -15.52,-0.71463 -9.08425,-0.003 -11.69191,0.0983 -14.72,0.57354 -5.44493,0.85456 -11.88496,2.2624 -18.65154,4.07734 l -6.01153,1.61242 -12.86847,-9.34707 c -15.55245,-11.29658 -14.67946,-10.66733 -15.26846,-11.00557 -0.8762,-0.5032 2.0025,2.44281 14.96959,15.31952 9.85629,9.78758 12.97677,12.70912 13.40077,12.54643 1.34938,-0.51782 16.41974,-4.0824 20.90964,-4.94576 8.95159,-1.72128 12.58685,-2.07901 21.28,-2.09392 7.8049,-0.0134 8.11519,0.0109 12.72274,1.00122 2.59751,0.5582 7.42151,1.7726 10.72,2.69862 l 5.99726,1.68368 -1.6,0.43034 c -7.96233,2.14156 -15.5649,5.56614 -20.32,9.15318 -6.57489,4.95981 -12.92022,12.77779 -17.18033,21.16768 -7.97618,15.70832 -11.65089,30.29133 -14.02336,55.65139 -0.53898,5.76138 -0.59815,8.43053 -0.16302,7.3537 0.15,-0.3712 2.51314,-9.23431 5.25143,-19.69584 z m 195.56505,13.75622 c -1.53661,-18.07145 -4.39258,-33.21545 -8.16733,-43.30761 -5.61674,-15.017 -10.9265,-23.79946 -18.96224,-31.36394 -6.06141,-5.70598 -12.80471,-9.36176 -22.11312,-11.98832 l -4.11293,-1.16054 5.39293,-1.5034 c 12.66243,-3.52988 17.14022,-4.21116 26.03293,-3.96089 3.608,0.10157 8.36,0.41865 10.56,0.7047 5.47408,0.71168 15.10937,2.67437 23.35132,4.75661 l 6.8713,1.73594 7.84871,-7.62752 c 11.59347,-11.26679 20.79308,-20.63284 19.60476,-19.95943 -0.57417,0.32535 -7.03756,4.96141 -14.36316,10.30237 l -13.31924,9.71085 -5.95683,-1.59869 c -14.0353,-3.76675 -19.03187,-4.53734 -30.85126,-4.75795 -12.27335,-0.22909 -18.76909,0.44365 -28.13325,2.91373 -8.71223,2.29811 -15.04624,4.87065 -17.54032,7.1239 -2.43763,2.20224 -1.56893,3.52371 3.84358,5.84669 10.27111,4.40829 21.95239,10.04182 24.72816,11.92569 6.08119,4.12717 11.92032,11.87978 17.792,23.62234 6.61411,13.22739 6.75443,13.62496 12.3201,34.91082 2.74256,10.48896 5.08022,19.31516 5.19485,19.61382 0.48108,1.25376 0.47635,-0.0905 -0.0208,-5.93917 z M 316.67593,412.9183 c 1.28491,-0.41846 4.88491,-1.43411 8.00001,-2.25696 8.01638,-2.1175 9.83482,-2.10352 18.30378,0.14103 3.432,0.9096 7.032,1.93238 8,2.27286 0.968,0.34048 2.048,0.72103 2.4,0.84567 1.20182,0.42556 -1.52039,-1.7824 -5.19165,-4.21088 -6.18531,-4.09149 -9.34275,-5.23002 -14.50439,-5.23002 -3.80848,0 -7.28633,0.83478 -10.15014,2.43632 -3.9798,2.22563 -11.61078,7.65734 -9.83382,6.99971 0.352,-0.1303 1.69129,-0.57926 2.97621,-0.99773 z m -54.39908,-4.72806 c 9.30272,-1.4088 20.03075,-4.72339 27.67253,-8.54992 3.05973,-1.53213 6.44689,-3.50634 7.59033,-4.4241 0.74989,-0.60185 0.6196,-0.5918 -2.08,0.16055 -8.17911,2.27945 -16.11185,3.88662 -23.84,4.82998 -3.72304,0.45447 -7.23276,0.56906 -17.76,0.57984 -12.82691,0.0131 -13.25582,-0.007 -19.2,-0.89923 -15.32272,-2.30006 -21.58445,-5.29821 -35.68,-17.08371 -2.728,-2.2809 -6.94,-5.97424 -9.36,-8.20739 -2.42,-2.23316 -4.4,-3.92704 -4.4,-3.7642 0,1.18852 14.30307,19.16004 18.72,23.52132 3.66129,3.61516 8.69642,7.27961 12.78602,9.3054 5.59059,2.76928 10.35258,3.92445 19.85398,4.81616 6.26483,0.58797 21.01359,0.42455 25.69714,-0.2847 z m 165.98287,0.28899 c 6.14316,-0.53926 10.12803,-1.16003 13.52284,-2.10659 7.29121,-2.03299 14.55713,-6.65955 20.87825,-13.29424 4.59168,-4.81946 17.99004,-21.91395 17.53353,-22.37043 -0.0641,-0.0641 -1.76758,1.41443 -3.78557,3.2856 -8.92451,8.27526 -18.00812,15.56806 -23.24022,18.65853 -6.84813,4.04496 -12.06531,5.69744 -23.30883,7.38284 -8.56071,1.28324 -29.52896,1.16762 -39.2,-0.21619 -6.36602,-0.91088 -14.47834,-2.66461 -21.28,-4.60035 l -2.24,-0.6375 0.8334,0.73411 c 1.34218,1.1823 7.55335,4.55145 11.23226,6.0928 9.42618,3.94921 18.8224,6.32253 29.05434,7.33856 3.17097,0.31488 15.20035,0.15421 20,-0.26714 z m -119.61517,-6.10336 c 2.81711,-1.07721 16.95379,-4.8143 20.57517,-5.43913 3.48108,-0.60064 6.27763,-0.45786 10.55334,0.53884 5.5873,1.30244 15.9287,4.17984 18.31632,5.09639 1.35834,0.52141 2.57152,0.94803 2.69594,0.94803 0.45875,0 -3.6936,-3.0617 -8.04624,-5.93283 -8.75924,-5.77783 -11.97924,-6.93843 -19.35936,-6.97786 -4.8409,-0.0259 -6.88144,0.30199 -10.64532,1.71024 -3.14165,1.17543 -13.06983,7.47709 -16.39469,10.40608 -1.05386,0.92839 -1.02716,0.92432 2.30484,-0.34976 z m 301.39626,171.32535 c -1.97373,-11.53988 -5.42128,-30.35069 -7.07895,-38.62477 -4.28204,-21.37338 -12.86608,-50.90295 -19.91724,-68.51645 -2.19412,-5.48086 -22.10919,-54.05056 -26.83236,-65.44 -3.53897,-8.53382 -5.47549,-12.37334 -11.94326,-23.68 -8.73331,-15.26714 -10.54983,-18.09882 -19.19328,-29.92 -4.78711,-6.54704 -6.98416,-9.13504 -14.10467,-16.6143 -10.6922,-11.23097 -14.19527,-14.15505 -21.12199,-17.63104 -14.71235,-7.38302 -28.95299,-10.54416 -47.68314,-10.58475 -6.69638,-0.0145 -8.55091,0.0897 -12.03142,0.67642 -10.10256,1.70284 -21.71456,7.07736 -31.45363,14.55804 -7.38243,5.67051 -17.73251,15.44328 -23.54922,22.23563 -1.58256,1.848 -5.10816,6.23258 -7.83465,9.74352 -9.35005,12.04006 -19.32589,21.22518 -25.8018,23.75667 -2.00089,0.78218 -2.6744,0.87011 -7.59878,0.99213 -6.27469,0.15549 -8.31987,-0.14592 -11.59469,-1.7088 -5.76631,-2.75194 -16.40314,-12.8769 -24.35557,-23.18352 -6.53687,-8.47203 -9.93317,-12.34355 -16.28791,-18.56704 -11.44102,-11.20473 -18.72479,-16.74092 -28.58874,-21.72956 -10.56744,-5.34443 -16.83866,-6.76912 -29.77453,-6.76414 -11.01438,0.004 -19.03691,0.92258 -28.15527,3.22295 -10.40986,2.62619 -21.44308,7.54854 -27.83029,12.41617 -2.61555,1.9933 -8.51664,7.8141 -15.42859,15.21868 -5.55802,5.95414 -7.01393,7.73888 -12.95682,15.88294 -7.63936,10.4689 -9.37423,13.20493 -18.62219,29.36854 -6.03486,10.54775 -6.64271,11.73309 -9.63625,18.79146 -2.45403,5.78627 -26.218036,63.60579 -28.803096,70.08 -4.57063,11.44701 -11.04471,32.38979 -15.67915,50.72 -2.39779,9.48378 -5.7442,26.1857 -9.15223,45.67882 -1.39226,7.96336 -2.62038,14.47936 -2.72916,14.48 -0.38458,0.003 -22.55089,-22.30868 -24.49657,-24.65645 -7.25496,-8.75424 -16.34412,-19.81015 -18.40078,-22.38237 -2.5413495,-3.17843 -6.8298895,-9.45626 -8.5376595,-12.49792 l -0.99822,-1.77792 1.40282,-5.90208 c 3.34279,-14.06413 5.19569,-19.74442 12.7288995,-39.02208 7.26361,-18.58774 9.14195,-23.16122 17.54532,-42.72 19.90453,-46.32768 22.74233,-51.45962 56.00499,-101.28 11.765046,-17.62155 17.464586,-25.80597 23.621496,-33.92 15.27105,-20.12532 16.67465,-22.09869 19.00512,-26.72 1.67599,-3.32349 2.36967,-5.38135 2.95401,-8.76334 0.99241,-5.74381 5.01316,-33.68512 6.56908,-45.65043 0.89159,-6.85643 2.25838,-17.21823 3.03731,-23.02623 0.77894,-5.808 1.71262,-14.592 2.07485,-19.52 0.82522,-11.22691 1.11641,-14.0578 2.12305,-20.64 3.35532,-21.93964 9.38352,-40.56657 19.7009,-60.875114 7.84577,-15.443462 17.94037,-28.815651 30.12853,-39.910886 5.93061,-5.398813 16.85422,-14.49848 20.69463,-17.239203 12.31018,-8.785198 25.88224,-14.302746 43.36,-17.627456 9.94758,-1.892279 42.26726,-7.0054761 42.51037,-6.7254335 0.0659,0.075951 0.64662,50.7540925 1.29043,112.6180925 1.33543,128.32309 1.48473,139.58184 1.83942,138.71141 0.14151,-0.34727 1.12288,-4.67505 2.18082,-9.61726 l 1.92352,-8.98586 -0.95764,-111.22645 C 311.07992,68.027286 310.68739,14.18292 310.73435,9.5476902 L 310.81971,1.12 l 1.6,-0.21351941 c 0.88001,-0.11743564 5.81201,-0.37652412 10.96001,-0.57575222 12.10947,-0.46863755 30.40883,0.13142826 31.3039,1.02650623 0.0978,0.097771 -0.2799,53.9403914 -0.83926,119.6502654 l -1.01703,119.4725 1.99287,9.28 c 1.09606,5.104 2.116,9.496 2.26646,9.76 0.15882,0.27862 0.27766,-2.114 0.28333,-5.70309 0.0218,-13.82051 2.59587,-245.9497052 2.72883,-246.082687 0.26141,-0.2614144 27.5632,3.981236 39.0409,6.066889 9.00985,1.63721 13.51945,2.729716 19.67977,4.767663 11.60842,3.84027 19.87235,8.047653 28.37626,14.447062 4.08851,3.076713 13.26589,10.71511 17.92976,14.923075 17.86429,16.117984 29.8775,34.129824 40.21699,60.298698 6.72874,17.03019 11.21933,36.63662 12.66173,55.28239 0.18378,2.376 0.55466,7.128 0.82413,10.56 0.43123,5.49177 2.38528,21.04154 6.09229,48.48 2.05257,15.1929 5.26435,36.44528 5.88371,38.93267 1.58317,6.35801 3.84057,9.8212 21.65853,33.22733 5.87708,7.72031 11.75568,16.20571 25.05113,36.16 31.61674,47.45146 34.45191,52.58739 53.70093,97.28 8.08928,18.78182 10.69965,25.11773 17.86413,43.36 6.0377,15.37325 8.18515,21.49642 10.50339,29.94902 1.73344,6.32029 3.71725,14.65824 3.71725,15.62368 0,1.61495 -6.43955,10.99616 -13.08534,19.06292 -17.40983,21.13228 -15.765,19.28496 -28.44384,31.9456 L 610.9338,578.92243 Z M 150.36885,297.16515 c 16.28235,-7.96204 32.87822,-15.59975 40.87643,-18.81206 10.40229,-4.17785 22.97902,-6.41984 36.05443,-6.42723 7.69398,-0.004 12.02771,0.40552 21.28,2.01258 14.75657,2.56313 23.86007,5.58341 39.87487,13.22936 3.53917,1.68971 6.52746,3.0722 6.64065,3.0722 0.86405,0 -10.45424,-9.21844 -15.35684,-12.50772 -4.52441,-3.03555 -7.21913,-4.25902 -15.31868,-6.95505 -13.43389,-4.47163 -23.27316,-6.39953 -34.12558,-6.68657 -7.78558,-0.20592 -11.68256,0.13139 -19.31442,1.6718 -6.70426,1.35319 -12.47681,3.08695 -19.33194,5.80625 -13.88241,5.50689 -25.96359,11.94041 -37.62806,20.03785 -7.40888,5.14322 -14.42746,10.42928 -13.89086,10.46193 0.10403,0.006 4.71203,-2.20017 10.24,-4.90334 z m 374.21087,4.10902 c -4.14605,-3.4665 -17.86448,-13.00244 -23.74259,-16.50392 -7.82023,-4.65837 -20.93341,-10.92789 -29.76144,-14.22922 -11.29351,-4.22329 -20.7754,-6.17386 -31.36106,-6.45146 -12.55552,-0.32925 -23.36739,1.55787 -39.13491,6.83065 -8.58628,2.87132 -10.16951,3.59546 -15.01312,6.8667 -5.27485,3.56249 -15.65716,11.96947 -15.26551,12.36112 0.0786,0.0786 3.07149,-1.25637 6.65082,-2.96669 9.48761,-4.53351 13.53289,-6.23218 19.62781,-8.24197 8.52246,-2.81027 15.44953,-4.3822 26.24,-5.95453 15.9879,-2.32968 32.24217,-1.01231 46.88,3.79952 6.77187,2.22608 23.6448,9.80832 44.16,19.8443 6.072,2.9704 11.184,5.4114 11.36,5.42444 0.176,0.0131 -0.112,-0.33748 -0.64,-0.77894 z M 263.9497,559.6 l 0.01,-14.16 7.99001,-8.06896 7.99001,-8.06896 V 551.53104 573.76 h -8 -8 l 0.01,-14.16 z m 30.07001,-13.4424 v -27.6024 l 8,-7.9952 8,-7.9952 v 35.5976 35.5976 h -8 -8 z M 322.49972,534.72 v -39.04 h 9.92 9.92 v 39.04 39.04 h -9.92 -9.92 z m 32.97523,3.44 0.0154,-35.6 7.82477,7.95786 7.82476,7.95785 V 546.11786 573.76 h -7.84 -7.84 l 0.0154,-35.6 z m 30.06477,13.4424 v -22.1576 l 8,7.9952 8,7.9952 v 14.1624 14.1624 h -8 -8 z"
     id="path825"
     inkscape:connector-curvature="0" />
</svg>
